<?xml version="1.0"?>
<svg xmlns="http://www.w3.org/2000/svg" id="Layer_1" data-name="Layer 1" viewBox="0 0 512 512" width="512" height="512"><title>folder structure</title><path d="M462.419,389.345h-16.2V360.854a16.1,16.1,0,0,0-16.083-16.083h-28.49V298.544A21.025,21.025,0,1,0,375.493,272.4H277.919a21.1,21.1,0,0,0-14.148-14.146V207.629h36.077V235.58a6,6,0,0,0,6,6H353.49a6,6,0,0,0,6-6V207.629h17.834a6,6,0,0,0,6-6V69.4a6,6,0,0,0-5.975-6l-120.007-.49V54.53a5.969,5.969,0,0,0,0-3.452V26a6,6,0,0,0-6-6H215.6a6,6,0,0,0-6,6V62.576l-13.528-.139V39.785a6,6,0,0,0-6-6h-26.8a23.64,23.64,0,0,0-23.587,22.589c-.014.169-.026.34-.026.514V184.015a23.641,23.641,0,0,0,23.613,23.614h88.5V258.25A21.1,21.1,0,0,0,237.625,272.4H140.051A21.025,21.025,0,1,0,113.9,298.544v40.984L100.45,328.651a16.141,16.141,0,0,0-10.112-3.576H49.566a16.1,16.1,0,0,0-16.084,16.083V475.917a16.008,16.008,0,0,0,3.826,10.4c.055.068.112.134.171.2A16.05,16.05,0,0,0,49.566,492H193.2a16.1,16.1,0,0,0,14.04-8.236,6.214,6.214,0,0,0,.336-.7l27.992-70.167a16.083,16.083,0,0,0-14.246-23.548h-16.2V360.854a16.1,16.1,0,0,0-16.084-16.083H125.9V298.544A21.1,21.1,0,0,0,140.051,284.4h97.574a21.017,21.017,0,0,0,40.294,0h97.574a21.1,21.1,0,0,0,14.148,14.148v46.227H362.926a4.1,4.1,0,0,1-2.568-.909l-18.813-15.211a16.143,16.143,0,0,0-10.112-3.576H290.66a16.1,16.1,0,0,0-16.083,16.083V475.917a16.011,16.011,0,0,0,3.834,10.411c.05.06.1.119.153.178A16.052,16.052,0,0,0,290.66,492H434.3a16.1,16.1,0,0,0,14.04-8.236,6.214,6.214,0,0,0,.336-.7l27.992-70.167a16.084,16.084,0,0,0-14.247-23.548ZM311.848,229.58V95.308H347.49v14.548h-10.5a6,6,0,0,0,0,12h10.5v11.486h-10.5a6,6,0,0,0,0,12h10.5v11.229h-10.5a6,6,0,0,0,0,12h10.5V179.8h-10.5a6,6,0,0,0,0,12h10.5V229.58ZM221.6,58.8h23.739v79.634l-11.869,19.668L221.6,138.438ZM245.342,32V46.8H221.6V32ZM163.271,45.785h20.8V151.211h-20.8a23.455,23.455,0,0,0-11.613,3.066V57.4A11.627,11.627,0,0,1,163.271,45.785Zm-11.613,138.23v-9.19a11.627,11.627,0,0,1,11.613-11.614h26.8a6,6,0,0,0,6-6V74.438l13.528.14v65.529a5.993,5.993,0,0,0,.863,3.1l17.87,29.612a6,6,0,0,0,10.273,0l17.87-29.612a6.005,6.005,0,0,0,.863-3.1v-65.2l113.982.466V195.629H359.49v-8.8a5.63,5.63,0,0,0,0-2.049V163.6a5.63,5.63,0,0,0,0-2.049V140.366a5.63,5.63,0,0,0,0-2.049V116.881a5.63,5.63,0,0,0,0-2.049V89.308a6,6,0,0,0-6-6H305.848a6,6,0,0,0-6,6V195.629H163.271A11.627,11.627,0,0,1,151.658,184.015Zm69.667,217.33a4.082,4.082,0,0,1,3.564,6.075,6.034,6.034,0,0,0-.335.7L196.61,478.168A4.087,4.087,0,0,1,193.2,480H49.987l37.842-72.893a14.176,14.176,0,0,1,11.405-5.762Zm-28.2-40.491v28.491H99.234a26.184,26.184,0,0,0-21.452,11.182,6.106,6.106,0,0,0-.406.671L45.482,462.633V341.158a4.088,4.088,0,0,1,4.084-4.083H90.338a4.089,4.089,0,0,1,2.567.908L111.721,353.2a16.136,16.136,0,0,0,10.11,3.576h67.205A4.088,4.088,0,0,1,193.12,360.854ZM119.9,287.428a9.031,9.031,0,1,1,9.032-9.032A9.041,9.041,0,0,1,119.9,287.428Zm137.868,0A9.031,9.031,0,1,1,266.8,278.4,9.041,9.041,0,0,1,257.771,287.428ZM386.609,278.4a9.031,9.031,0,1,1,9.032,9.032A9.041,9.041,0,0,1,386.609,278.4ZM286.577,462.633V341.158a4.088,4.088,0,0,1,4.083-4.083h40.773a4.093,4.093,0,0,1,2.567.908l18.813,15.211a16.137,16.137,0,0,0,10.113,3.577h67.2a4.088,4.088,0,0,1,4.083,4.083v28.491H340.328a26.182,26.182,0,0,0-21.451,11.182,6.106,6.106,0,0,0-.406.671ZM465.983,407.42a6.2,6.2,0,0,0-.335.7l-27.943,70.045A4.087,4.087,0,0,1,434.3,480H291.082l37.842-72.893a14.175,14.175,0,0,1,11.4-5.762H462.419a4.082,4.082,0,0,1,3.564,6.075Z"/><path d="M329.333,197.415a14.425,14.425,0,1,0,14.424,14.425A14.441,14.441,0,0,0,329.333,197.415Zm0,16.849a2.425,2.425,0,1,1,2.424-2.424A2.426,2.426,0,0,1,329.333,214.264Z"/></svg>
