<svg width="96" height="96" viewBox="0 0 96 96" fill="none" xmlns="http://www.w3.org/2000/svg">
<path d="M74.4464 85.7744C74.4813 85.7577 74.5109 85.7403 74.5352 85.7221C74.5595 85.7039 74.5868 85.6834 74.6171 85.6607C74.8478 85.4879 75.0292 85.2809 75.1613 85.0398C75.2934 84.7987 75.3876 84.5386 75.4439 84.2595C75.4987 83.9911 75.5223 83.7127 75.5149 83.4245C75.5014 83.1408 75.4758 82.8662 75.438 82.6008C75.4048 82.3413 75.361 82.0994 75.3065 81.8748C75.2459 81.6548 75.1907 81.4735 75.1407 81.3309C75.0101 81.5993 74.8848 81.8875 74.7647 82.1954C74.6387 82.5078 74.5232 82.8027 74.4184 83.0803C74.3136 83.3578 74.227 83.6027 74.1586 83.8151C74.0841 84.032 74.0302 84.1813 73.9968 84.2632C73.8509 84.6378 73.781 84.9366 73.7869 85.1596C73.7974 85.3887 73.8436 85.5578 73.9254 85.6671C73.9936 85.7582 74.0785 85.8083 74.1802 85.8174C74.2757 85.8311 74.3645 85.8168 74.4464 85.7744ZM75.0599 87.2765C74.5561 87.6539 74.0888 87.8144 73.658 87.758C73.2272 87.7017 72.8504 87.458 72.5275 87.027C72.3366 86.772 72.2033 86.4549 72.1276 86.0757C72.052 85.6964 72.0689 85.2383 72.1785 84.7013C72.2925 84.1705 72.5121 83.5464 72.8371 82.8291C73.1606 82.1224 73.6215 81.3081 74.2197 80.3861C74.0575 80.2328 73.8588 80.1637 73.6237 80.1787C73.3931 80.1998 73.1473 80.3081 72.8862 80.5037C72.607 80.7128 72.3391 80.9751 72.0826 81.2905C71.8245 81.6165 71.5884 81.9592 71.3743 82.3186C71.1542 82.6825 70.9499 83.0487 70.7616 83.4172C70.5779 83.7918 70.4176 84.1345 70.2809 84.4454C70.1382 84.7609 70.0242 85.0263 69.9392 85.2416C69.848 85.4615 69.7842 85.6041 69.7478 85.6693C69.7204 85.7466 69.6878 85.8042 69.6499 85.8421C69.6058 85.8846 69.5656 85.9195 69.5292 85.9467C69.4564 86.0013 69.382 86.0286 69.3062 86.0285C69.2349 86.0346 69.1658 86.0247 69.0991 85.9988C69.0309 85.9836 68.9702 85.9533 68.9171 85.9077C68.8686 85.8682 68.8307 85.8303 68.8034 85.7939C68.7625 85.7392 68.7186 85.6679 68.6716 85.5799C68.6292 85.498 68.611 85.3789 68.6172 85.2226C68.6248 85.1696 68.6666 85.0103 68.7426 84.7449C68.8125 84.484 68.9159 84.1602 69.0526 83.7735C69.1894 83.3867 69.3625 82.9538 69.5721 82.4745C69.7802 82.0059 70.024 81.5343 70.3034 81.0596C70.5767 80.5896 70.8909 80.1362 71.2461 79.6995C71.5968 79.2568 71.9846 78.8762 72.4095 78.5579C72.7737 78.2851 73.1508 78.1116 73.5407 78.0375C73.9245 77.9679 74.3053 77.9765 74.6829 78.0632C75.0545 78.1544 75.4079 78.3162 75.743 78.5485C76.0781 78.7807 76.373 79.0668 76.6276 79.4068C76.8232 79.6678 76.9853 79.9918 77.114 80.3787C77.2473 80.7716 77.335 81.1987 77.3772 81.6599C77.4194 82.121 77.4123 82.6049 77.3559 83.1115C77.298 83.6288 77.1793 84.1346 77.0001 84.629C76.8208 85.1234 76.574 85.5973 76.2598 86.0507C75.9394 86.5087 75.5395 86.9172 75.0599 87.2765Z" fill="#3D3D3D"/>
<path d="M65.5732 83.7851C65.7122 84.1216 65.7804 84.4955 65.7779 84.9069C65.7684 85.3211 65.7246 85.7617 65.6467 86.2288C65.5687 86.6959 65.4712 87.1751 65.3541 87.6666C65.2398 88.1651 65.1425 88.6647 65.0621 89.1657C65.0383 89.3068 65.0257 89.4351 65.0241 89.5506C65.0255 89.6731 65.0479 89.787 65.0913 89.8921C65.1376 90.0043 65.2068 90.0824 65.2988 90.1265C65.3937 90.1775 65.5008 90.1785 65.62 90.1293C65.9074 90.0106 66.1583 89.8332 66.3726 89.597C66.5898 89.3678 66.7791 89.1009 66.9406 88.7963C67.1049 88.4987 67.2457 88.1739 67.3629 87.8219C67.4732 87.4728 67.5685 87.1175 67.6491 86.756C67.7255 86.4045 67.7914 86.0572 67.8467 85.7144C67.9021 85.3715 67.9536 85.0589 68.0012 84.7767C68.0319 84.4933 68.0434 84.1931 68.0356 83.8763C68.0279 83.5594 68.0394 83.2593 68.0701 82.9759C68.0937 82.6953 68.1508 82.4461 68.2414 82.2282C68.3291 82.0032 68.4886 81.843 68.7199 81.7475C68.9723 81.6433 69.2054 81.6414 69.4192 81.7419C69.633 81.8424 69.7862 82.0048 69.8788 82.2291C69.9309 82.3553 69.9664 82.5704 69.9852 82.8744C70.0041 83.1785 70.0158 83.5347 70.0203 83.9431C70.0207 84.3615 70.0122 84.808 69.9949 85.2829C69.9776 85.7578 69.9624 86.2277 69.9492 86.6926C69.929 87.1605 69.9127 87.598 69.9003 88.0052C69.8838 88.4223 69.8736 88.7753 69.8697 89.064C69.868 89.4176 69.7958 89.71 69.6533 89.9411C69.5038 90.1752 69.3273 90.3342 69.124 90.4181C68.9488 90.4905 68.767 90.4875 68.5788 90.4093C68.3865 90.341 68.2397 90.1842 68.1384 89.9388C68.0632 89.7565 68.0227 89.5394 68.0171 89.2873C67.9002 89.5407 67.775 89.8139 67.6417 90.107C67.5083 90.4 67.3501 90.6827 67.1672 90.9552C66.9801 91.2376 66.7521 91.4999 66.4829 91.7424C66.2137 91.9848 65.8828 92.187 65.4902 92.3491C65.2939 92.4302 65.098 92.4823 64.9025 92.5056C64.707 92.5289 64.5209 92.5154 64.3443 92.4653C64.1606 92.418 63.992 92.3276 63.8384 92.1941C63.6778 92.0635 63.5413 91.8819 63.4289 91.6493C63.3342 91.8771 63.2241 92.1072 63.0985 92.3396C62.9757 92.579 62.8318 92.8066 62.6665 93.0225C62.4943 93.2414 62.2944 93.4429 62.0668 93.6271C61.8393 93.8113 61.5678 93.9685 61.2523 94.0988C61.0209 94.1943 60.79 94.2609 60.5594 94.2987C60.3288 94.3364 60.1083 94.329 59.8978 94.2764C59.6833 94.2337 59.4928 94.14 59.3264 93.9953C59.153 93.8536 59.0113 93.6495 58.9013 93.3831C58.7277 92.9625 58.6608 92.5223 58.7008 92.0627C58.7338 91.606 58.8149 91.1663 58.944 90.7438C58.9848 90.6039 59.0419 90.4244 59.1156 90.2052C59.1892 89.9861 59.255 89.7579 59.313 89.5206C59.3709 89.2834 59.4084 89.0463 59.4256 88.8095C59.4456 88.5797 59.4208 88.3807 59.3514 88.2124C59.2877 88.0582 59.2016 87.9788 59.0931 87.9744C58.9776 87.9728 58.8427 88.0039 58.6885 88.0676C58.394 88.1891 58.1112 88.4085 57.84 88.7256C57.5689 89.0427 57.3227 89.3905 57.1015 89.769C56.8762 90.1574 56.6783 90.5427 56.5079 90.9249C56.3333 91.317 56.1996 91.6389 56.1066 91.8906C56.0848 91.9571 56.0502 92.0124 56.0028 92.0565C55.9553 92.1007 55.9036 92.1344 55.8475 92.1576C55.7213 92.2097 55.586 92.1999 55.4415 92.1282C55.2901 92.0595 55.1767 91.934 55.1015 91.7517C55.0436 91.6115 55.022 91.4399 55.0366 91.2369C55.0513 91.0339 55.127 90.8098 55.2637 90.5646C55.4918 90.0438 55.7362 89.5326 55.9968 89.0311C56.2534 88.5395 56.5315 88.0801 56.831 87.6528C57.1264 87.2355 57.4456 86.8657 57.7885 86.5436C58.1244 86.2244 58.4922 85.9823 58.8918 85.8174C59.4106 85.6032 59.8819 85.5522 60.3057 85.6644C60.7225 85.7796 61.0409 86.1035 61.2608 86.6363C61.4055 86.9869 61.475 87.3439 61.4691 87.7073C61.4633 88.0708 61.4201 88.4333 61.3396 88.7947C61.2619 89.1632 61.1694 89.5255 61.0621 89.8816C60.9548 90.2378 60.8755 90.5823 60.8242 90.9153C60.8004 91.0564 60.7877 91.1847 60.7862 91.3002C60.7875 91.4228 60.8099 91.5366 60.8533 91.6418C60.8996 91.7539 60.9688 91.8321 61.0609 91.8761C61.1558 91.9272 61.2628 91.9281 61.382 91.8789C61.6695 91.7602 61.9203 91.5828 62.1346 91.3466C62.3518 91.1175 62.5412 90.8506 62.7026 90.546C62.8669 90.2484 63.0077 89.9236 63.125 89.5715C63.2352 89.2224 63.3306 88.8671 63.4111 88.5057C63.4875 88.1541 63.5534 87.8069 63.6088 87.464C63.6642 87.1211 63.7157 86.8086 63.7633 86.5263C63.7939 86.2429 63.8054 85.9427 63.7977 85.6259C63.79 85.3091 63.8014 85.0089 63.8321 84.7255C63.8558 84.4449 63.9129 84.1957 64.0035 83.9778C64.0911 83.7529 64.2506 83.5927 64.482 83.4971C64.5661 83.4624 64.6645 83.4423 64.7771 83.4368C64.8868 83.4244 64.9953 83.4288 65.1026 83.4502C65.2029 83.4744 65.297 83.5135 65.3849 83.5675C65.4658 83.6243 65.5286 83.6969 65.5732 83.7851Z" fill="#3D3D3D"/>
<path d="M53.077 93.397C53.4307 93.3526 53.7617 93.2193 54.0702 92.9972C54.3721 92.7835 54.6325 92.5138 54.8516 92.1882C55.064 91.871 55.2224 91.5186 55.3266 91.131C55.4318 90.7509 55.4603 90.3689 55.4121 89.9851C55.3941 89.8421 55.363 89.6855 55.3187 89.5153C55.2754 89.3525 55.2104 89.2002 55.1237 89.0581C55.0305 88.9246 54.9101 88.8174 54.7623 88.7366C54.6146 88.6558 54.4278 88.6295 54.2021 88.6578C53.8559 88.7013 53.5323 88.8336 53.2314 89.0549C52.9239 89.2846 52.6606 89.5622 52.4416 89.8878C52.2235 90.221 52.0628 90.5851 51.9595 90.9803C51.8563 91.3755 51.8287 91.765 51.8769 92.1488C51.8958 92.2993 51.9264 92.4521 51.9688 92.6073C52.0047 92.771 52.0687 92.9159 52.161 93.0419C52.2457 93.1688 52.361 93.2652 52.5068 93.331C52.6536 93.4043 52.8437 93.4263 53.077 93.397ZM52.7393 95.4574C52.4534 95.4933 52.1438 95.494 51.8108 95.4593C51.4702 95.4256 51.1494 95.3359 50.8483 95.1903C50.5471 95.0446 50.2874 94.8326 50.069 94.5543C49.844 94.2844 49.7041 93.9312 49.6494 93.4947C49.621 93.2689 49.6185 93.0055 49.6419 92.7045C49.6662 92.4109 49.7187 92.0986 49.7995 91.7674C49.7129 91.6865 49.6183 91.6334 49.5158 91.6081C49.4132 91.5827 49.3055 91.5771 49.1926 91.5913C49.0346 91.6111 48.8671 91.678 48.6903 91.7919C48.506 91.9068 48.3212 92.0485 48.136 92.217C47.9507 92.3855 47.7678 92.5728 47.5873 92.7789C47.4068 92.985 47.2376 93.1897 47.0796 93.393C46.9217 93.5963 46.7811 93.7859 46.658 93.9619C46.5283 94.1463 46.4216 94.3011 46.3379 94.4263C46.2918 94.4856 46.2312 94.52 46.1559 94.5294C46.0505 94.5426 45.9494 94.498 45.8524 94.3955C45.7564 94.3005 45.6962 94.1552 45.6716 93.9596C45.647 93.7639 45.6789 93.5306 45.7672 93.2596C45.848 92.9895 46.0289 92.6955 46.31 92.3773C46.4661 92.159 46.6447 91.9073 46.8459 91.6221C47.0471 91.337 47.2652 91.065 47.5003 90.8062C47.7353 90.5473 47.9859 90.3209 48.252 90.127C48.5182 89.9331 48.7942 89.8182 49.0802 89.7823C49.2759 89.7577 49.4716 89.7637 49.6673 89.8003C49.8554 89.8379 50.0521 89.9126 50.2572 90.0244C50.4752 89.569 50.7356 89.1464 51.0384 88.7568C51.3411 88.3672 51.6913 88.0213 52.0891 87.7191C52.4794 87.4179 52.9144 87.1683 53.3941 86.9705C53.8653 86.7662 54.3793 86.629 54.9362 86.5591C55.1469 86.5327 55.3967 86.5434 55.6855 86.5912C55.9744 86.639 56.2585 86.741 56.538 86.897C56.8109 87.0615 57.0533 87.2871 57.2651 87.574C57.4769 87.8608 57.6107 88.2262 57.6664 88.6702C57.7042 88.9712 57.7006 89.3386 57.6557 89.7723C57.6107 90.206 57.5183 90.6572 57.3784 91.1257C57.2319 91.6028 57.0355 92.0784 56.7892 92.5527C56.5364 93.0354 56.221 93.4763 55.843 93.8754C55.466 94.282 55.0198 94.6247 54.5044 94.9034C53.9899 95.1896 53.4016 95.3743 52.7393 95.4574Z" fill="#3D3D3D"/>
<path d="M45.0816 87.7916C45.0318 88.1522 44.9021 88.5095 44.6925 88.8634C44.4753 89.2162 44.2153 89.5746 43.9124 89.9386C43.6095 90.3026 43.2835 90.6672 42.9345 91.0325C42.5844 91.4053 42.2483 91.7877 41.9263 92.1796C41.8345 92.2895 41.7589 92.3939 41.6993 92.4929C41.6386 92.5993 41.6005 92.7089 41.585 92.8216C41.5684 92.9418 41.5887 93.0442 41.646 93.1287C41.7022 93.2206 41.7941 93.2754 41.9219 93.2931C42.2299 93.3356 42.536 93.3089 42.8402 93.2131C43.1433 93.1248 43.4414 92.9898 43.7345 92.8082C44.0265 92.6342 44.3119 92.4247 44.5907 92.1799C44.862 91.9341 45.1236 91.6754 45.3754 91.4039C45.6187 91.1389 45.8508 90.8723 46.0715 90.6042C46.2923 90.336 46.4944 90.0921 46.6779 89.8724C46.8473 89.6432 47.0086 89.3898 47.1618 89.1123C47.3149 88.8349 47.4762 88.5815 47.6457 88.3522C47.8077 88.1219 47.9827 87.9355 48.1708 87.793C48.3599 87.643 48.5785 87.5852 48.8264 87.6194C49.0969 87.6567 49.2991 87.7727 49.4331 87.9673C49.567 88.1619 49.6174 88.3794 49.5842 88.6198C49.5655 88.755 49.4876 88.9587 49.3505 89.2307C49.2135 89.5027 49.0438 89.8162 48.8417 90.1711C48.6311 90.5325 48.3985 90.9139 48.144 91.3152C47.8896 91.7165 47.6394 92.1145 47.3935 92.5094C47.14 92.9032 46.9053 93.2727 46.6892 93.618C46.4645 93.9699 46.2777 94.2695 46.1287 94.5169C45.9488 94.8213 45.7391 95.0374 45.4994 95.1651C45.2522 95.2917 45.0197 95.34 44.8018 95.31C44.614 95.284 44.4585 95.1898 44.3355 95.0274C44.2039 94.8714 44.1562 94.6619 44.1925 94.3989C44.2195 94.2036 44.2941 93.9957 44.4164 93.7752C44.1876 93.9351 43.9418 94.1078 43.6788 94.2936C43.4158 94.4793 43.1366 94.6437 42.8412 94.7867C42.5373 94.9361 42.208 95.0476 41.8533 95.1212C41.4986 95.1947 41.1109 95.2025 40.6901 95.1444C40.4797 95.1153 40.2843 95.0616 40.1037 94.983C39.9231 94.9045 39.7692 94.7991 39.642 94.6666C39.5073 94.5332 39.4073 94.3701 39.3421 94.1773C39.2693 93.9835 39.243 93.7579 39.2632 93.5003C39.0666 93.6493 38.8554 93.7924 38.6297 93.9297C38.403 94.0745 38.1639 94.1985 37.9123 94.3016C37.6532 94.4036 37.3789 94.4768 37.0895 94.521C36.8001 94.5653 36.4864 94.5641 36.1483 94.5175C35.9003 94.4832 35.6673 94.4243 35.4491 94.3406C35.231 94.2569 35.0443 94.1392 34.8892 93.9876C34.7254 93.8425 34.6082 93.6656 34.5375 93.4567C34.4593 93.2469 34.4399 92.9992 34.4793 92.7137C34.5415 92.2629 34.7058 91.8491 34.9722 91.4724C35.2311 91.0947 35.5228 90.756 35.8475 90.4563C35.9532 90.356 36.0931 90.2298 36.2672 90.0778C36.4414 89.9257 36.6133 89.7618 36.783 89.5862C36.9527 89.4106 37.1047 89.2248 37.2389 89.029C37.3721 88.8406 37.4512 88.6563 37.476 88.476C37.4989 88.3107 37.4645 88.1987 37.3731 88.1402C37.2741 88.0806 37.142 88.0394 36.9767 88.0165C36.6611 87.973 36.3063 88.0197 35.9122 88.1567C35.5181 88.2938 35.1301 88.4699 34.7482 88.6852C34.3578 88.9069 33.9926 89.1398 33.6526 89.3838C33.3041 89.6343 33.0262 89.8448 32.8189 90.0152C32.7666 90.0616 32.7088 90.0919 32.6456 90.1062C32.5824 90.1204 32.5207 90.1234 32.4606 90.1151C32.3254 90.0964 32.2135 90.0197 32.1249 89.885C32.0288 89.7492 31.9942 89.5837 32.0212 89.3883C32.0419 89.238 32.1098 89.079 32.2248 88.9111C32.3399 88.7432 32.5183 88.5879 32.76 88.4452C33.2197 88.1105 33.6885 87.7924 34.1666 87.4908C34.6361 87.1958 35.1079 86.9393 35.582 86.7215C36.0476 86.5101 36.5097 86.3519 36.9683 86.2467C37.4194 86.1405 37.8591 86.117 38.2873 86.1761C38.8433 86.2529 39.276 86.4466 39.5853 86.7573C39.8871 87.0669 39.9986 87.5072 39.9198 88.0782C39.8679 88.4539 39.7478 88.7972 39.5594 89.1081C39.371 89.419 39.1509 89.7102 38.8991 89.9817C38.6462 90.2607 38.3835 90.5268 38.1112 90.7802C37.8389 91.0336 37.5966 91.2911 37.3844 91.5527C37.2927 91.6626 37.217 91.767 37.1574 91.8659C37.0968 91.9724 37.0587 92.082 37.0431 92.1947C37.0265 92.3149 37.0469 92.4173 37.1041 92.5017C37.1603 92.5937 37.2523 92.6485 37.38 92.6662C37.6881 92.7087 37.9942 92.682 38.2984 92.5862C38.6015 92.4979 38.8996 92.3629 39.1926 92.1813C39.4846 92.0072 39.7701 91.7978 40.0489 91.553C40.3201 91.3072 40.5817 91.0485 40.8336 90.777C41.0769 90.512 41.3089 90.2454 41.5297 89.9772C41.7505 89.7091 41.9526 89.4652 42.136 89.2455C42.3055 89.0163 42.4668 88.7629 42.6199 88.4854C42.7731 88.2079 42.9344 87.9546 43.1039 87.7253C43.2658 87.495 43.4408 87.3086 43.629 87.1661C43.8181 87.0161 44.0366 86.9582 44.2846 86.9925C44.3747 87.0049 44.4698 87.0372 44.5698 87.0893C44.6709 87.1338 44.7623 87.1924 44.8442 87.2649C44.9185 87.3365 44.9801 87.4177 45.0288 87.5086C45.07 87.5985 45.0876 87.6929 45.0816 87.7916Z" fill="#3D3D3D"/>
<path d="M29.5192 89.8476C29.8478 89.9858 30.2012 90.0356 30.5794 89.9971C30.9476 89.9627 31.3079 89.8591 31.6603 89.6863C32.0027 89.5176 32.3159 89.2913 32.5997 89.0075C32.8806 88.7306 33.096 88.4139 33.2459 88.0573C33.3017 87.9245 33.353 87.7732 33.3996 87.6036C33.4433 87.4409 33.463 87.2765 33.4589 87.1102C33.4448 86.948 33.394 86.7949 33.3063 86.6511C33.2187 86.5073 33.0699 86.3913 32.8602 86.3032C32.5385 86.168 32.1921 86.1211 31.8209 86.1625C31.4398 86.208 31.0731 86.3171 30.7207 86.4899C30.3654 86.6697 30.0444 86.905 29.7576 87.1958C29.4708 87.4866 29.2525 87.8103 29.1026 88.1669C29.0438 88.3068 28.994 88.4545 28.9533 88.6102C28.9026 88.7699 28.8858 88.9273 28.9028 89.0826C28.9128 89.2349 28.9646 89.376 29.0582 89.5058C29.1487 89.6426 29.3024 89.7565 29.5192 89.8476ZM28.1979 91.4643C27.9322 91.3526 27.6637 91.1986 27.3924 91.0023C27.1142 90.8031 26.881 90.5652 26.6928 90.2887C26.5046 90.0121 26.3854 89.6987 26.3352 89.3485C26.275 89.0023 26.3301 88.6265 26.5006 88.2209C26.5888 88.0112 26.7181 87.7817 26.8887 87.5325C27.0563 87.2903 27.2578 87.0459 27.4931 86.7993C27.4584 86.686 27.403 86.5928 27.3268 86.5196C27.2506 86.4464 27.16 86.3878 27.0552 86.3437C26.9083 86.282 26.7299 86.2564 26.5198 86.2668C26.3027 86.2743 26.0719 86.3048 25.8273 86.3583C25.5826 86.4118 25.3307 86.4827 25.0713 86.5712C24.812 86.6597 24.5632 86.7525 24.3248 86.8498C24.0865 86.9471 23.87 87.0412 23.6755 87.1322C23.471 87.2272 23.3012 87.3081 23.1663 87.3748C23.0967 87.4031 23.027 87.4026 22.9571 87.3732C22.8592 87.3321 22.7938 87.2429 22.761 87.1057C22.7253 86.9755 22.7456 86.8195 22.822 86.6377C22.8984 86.4559 23.0425 86.2696 23.2543 86.0789C23.4591 85.8853 23.7627 85.7208 24.1651 85.5856C24.4094 85.4743 24.6898 85.3454 25.0065 85.1988C25.3232 85.0521 25.648 84.9254 25.9808 84.8185C26.3137 84.7116 26.6439 84.6405 26.9713 84.6054C27.2987 84.5703 27.5953 84.6085 27.861 84.7202C28.0428 84.7966 28.2093 84.8995 28.3606 85.0289C28.5049 85.1554 28.638 85.3183 28.7599 85.5176C29.1762 85.2319 29.6128 84.9958 30.0696 84.8093C30.5264 84.6229 31.0026 84.4981 31.4981 84.4349C31.9867 84.3687 32.4881 84.3697 33.0025 84.4378C33.5128 84.496 34.0267 84.6338 34.5441 84.8513C34.7399 84.9336 34.951 85.0676 35.1774 85.2532C35.4037 85.4389 35.5991 85.6691 35.7633 85.9438C35.9176 86.2226 36.015 86.5391 36.0553 86.8934C36.0956 87.2476 36.0291 87.631 35.8557 88.0436C35.7381 88.3233 35.5516 88.6398 35.2961 88.9931C35.0406 89.3465 34.7353 89.6912 34.3801 90.0273C34.015 90.3675 33.6073 90.6816 33.1572 90.9696C32.6971 91.2616 32.2037 91.4861 31.677 91.6432C31.1473 91.8072 30.5896 91.8813 30.0038 91.8655C29.4152 91.8567 28.8132 91.7229 28.1979 91.4643Z" fill="#3D3D3D"/>
<path d="M20.6092 85.2465C20.6361 85.2742 20.6621 85.2966 20.6872 85.3137C20.7122 85.3309 20.7403 85.3502 20.7716 85.3717C21.0093 85.5346 21.2635 85.64 21.5343 85.6877C21.8051 85.7354 22.0816 85.7412 22.364 85.7049C22.6359 85.6706 22.9071 85.6036 23.1777 85.5041C23.442 85.4003 23.6938 85.2878 23.9331 85.1668C24.1681 85.0521 24.3832 84.9329 24.5784 84.8092C24.7673 84.6813 24.9213 84.5707 25.0403 84.4776C24.7442 84.4401 24.431 84.4139 24.1009 84.3991C23.7646 84.3799 23.4482 84.3653 23.1517 84.3551C22.8552 84.3449 22.5954 84.3415 22.3723 84.3449C22.143 84.344 21.9842 84.3409 21.896 84.3355C21.4944 84.3176 21.1889 84.3473 20.9796 84.4245C20.7661 84.508 20.6207 84.606 20.5435 84.7186C20.4791 84.8124 20.4589 84.9089 20.4829 85.0081C20.5006 85.103 20.5427 85.1825 20.6092 85.2465ZM19.3835 86.3097C18.8643 85.9537 18.5623 85.5626 18.4774 85.1365C18.3925 84.7105 18.5023 84.2754 18.8068 83.8312C18.987 83.5685 19.2445 83.3405 19.5795 83.1471C19.9144 82.9537 20.3537 82.8227 20.8973 82.7541C21.4367 82.6917 22.0983 82.6993 22.882 82.7769C23.6551 82.8564 24.5743 83.0315 25.6395 83.3021C25.7326 83.0992 25.7343 82.8889 25.6446 82.671C25.5506 82.4594 25.3691 82.2614 25.1001 82.0769C24.8123 81.8796 24.478 81.7101 24.0969 81.5684C23.7053 81.4286 23.305 81.315 22.8959 81.2276C22.4806 81.1359 22.0682 81.0601 21.6587 81C21.245 80.9462 20.8689 80.9045 20.5306 80.8748C20.186 80.8409 19.8981 80.8182 19.6669 80.8067C19.4293 80.791 19.2738 80.7763 19.2004 80.7628C19.1184 80.7617 19.0533 80.7493 19.0052 80.7255C18.9509 80.6974 18.905 80.6705 18.8674 80.6448C18.7924 80.5933 18.7427 80.5317 18.7184 80.4598C18.6898 80.3942 18.677 80.3257 18.68 80.2542C18.6725 80.1847 18.6818 80.1175 18.7079 80.0526C18.7297 79.994 18.7535 79.9459 18.7792 79.9084C18.8178 79.8521 18.8713 79.7876 18.9395 79.7148C19.0035 79.6483 19.1105 79.5929 19.2604 79.5486C19.3132 79.5388 19.4774 79.5273 19.7532 79.514C20.0227 79.4965 20.3625 79.4904 20.7727 79.4958C21.1829 79.5012 21.6485 79.5262 22.1697 79.5709C22.6803 79.6175 23.2052 79.697 23.7444 79.8092C24.2773 79.9172 24.8076 80.0693 25.3352 80.2655C25.8671 80.4555 26.3519 80.7006 26.7898 81.0008C27.1651 81.2582 27.4505 81.5596 27.6458 81.9051C27.8349 82.2463 27.949 82.6096 27.9881 82.9951C28.021 83.3763 27.9813 83.7629 27.8688 84.1548C27.7564 84.5468 27.5801 84.9179 27.3399 85.2682C27.1555 85.5372 26.9007 85.7947 26.5756 86.0408C26.2462 86.2932 25.8699 86.5133 25.4467 86.7013C25.0235 86.8894 24.5629 87.038 24.065 87.1472C23.5565 87.2583 23.0394 87.3084 22.5136 87.2973C21.9878 87.2862 21.4598 87.2046 20.9295 87.0525C20.393 86.8961 19.8776 86.6485 19.3835 86.3097Z" fill="#3D3D3D"/>
<path d="M10.2567 74.7709C10.2738 74.8056 10.2915 74.835 10.31 74.8591C10.3285 74.8831 10.3493 74.9102 10.3723 74.9403C10.5478 75.169 10.7568 75.348 10.9995 75.4773C11.2421 75.6066 11.5033 75.6978 11.783 75.7508C12.052 75.8025 12.3306 75.823 12.6188 75.8122C12.9023 75.7954 13.1765 75.7666 13.4416 75.7258C13.7006 75.6896 13.942 75.6429 14.1659 75.5859C14.3852 75.5228 14.5658 75.4654 14.7079 75.4138C14.438 75.2863 14.1484 75.1643 13.8392 75.0479C13.5253 74.9254 13.229 74.8134 12.9503 74.7118C12.6716 74.6101 12.4256 74.5264 12.2125 74.4604C11.9948 74.3885 11.8448 74.3363 11.7625 74.3038C11.3863 74.1623 11.0867 74.0958 10.8638 74.1043C10.6349 74.1175 10.4662 74.1656 10.3579 74.2487C10.2677 74.318 10.2185 74.4035 10.2106 74.5052C10.198 74.6009 10.2133 74.6895 10.2567 74.7709ZM8.76179 75.4017C8.37857 74.9023 8.21265 74.4369 8.26405 74.0055C8.31544 73.5741 8.55476 73.1945 8.98199 72.8666C9.23472 72.6727 9.55027 72.5358 9.92865 72.4557C10.307 72.3757 10.7653 72.3874 11.3034 72.4907C11.8356 72.5986 12.4622 72.811 13.1832 73.1277C13.8936 73.443 14.7132 73.8944 15.642 74.482C15.7934 74.318 15.8602 74.1185 15.8425 73.8836C15.8187 73.6532 15.7076 73.4087 15.509 73.15C15.2966 72.8732 15.0313 72.6083 14.713 72.3554C14.384 72.1012 14.0386 71.8691 13.6768 71.6591C13.3103 71.4432 12.9418 71.2432 12.5711 71.0591C12.1945 70.8797 11.8499 70.7235 11.5374 70.5904C11.2204 70.4512 10.9537 70.3404 10.7374 70.2578C10.5164 70.1692 10.3731 70.1071 10.3075 70.0714C10.2299 70.0449 10.1719 70.013 10.1335 69.9754C10.0906 69.9319 10.0552 69.8921 10.0275 69.856C9.97213 69.7838 9.94401 69.7098 9.94318 69.6339C9.93633 69.5627 9.94543 69.4936 9.97048 69.4266C9.9849 69.3581 10.0146 69.2971 10.0595 69.2435C10.0984 69.1946 10.1359 69.1562 10.172 69.1285C10.2262 69.087 10.297 69.0422 10.3844 68.9942C10.4659 68.9508 10.5847 68.9313 10.741 68.9357C10.7942 68.9427 10.9539 68.9827 11.2202 69.0556C11.4819 69.1225 11.8069 69.2221 12.1952 69.3544C12.5834 69.4866 13.0184 69.6548 13.5 69.8588C13.971 70.0615 14.4454 70.2998 14.9232 70.5737C15.3965 70.8415 15.8534 71.1505 16.2942 71.5007C16.741 71.8462 17.1259 72.2296 17.4491 72.6508C17.7262 73.0118 17.904 73.3869 17.9826 73.7759C18.0566 74.1589 18.0524 74.5397 17.9701 74.9183C17.8832 75.291 17.7255 75.6461 17.4971 75.9839C17.2687 76.3217 16.986 76.6199 16.649 76.8784C16.3903 77.077 16.0682 77.2428 15.6829 77.376C15.2915 77.5138 14.8654 77.6064 14.4048 77.654C13.9441 77.7015 13.4602 77.7 12.953 77.6494C12.4351 77.5975 11.9279 77.4847 11.4315 77.3112C10.935 77.1376 10.4583 76.8963 10.0013 76.5873C9.53972 76.2723 9.12654 75.8771 8.76179 75.4017Z" fill="#3D3D3D"/>
<path d="M12.1555 65.8334C11.82 65.9748 11.4466 66.0458 11.0353 66.0464C10.6211 66.04 10.1801 65.9996 9.71245 65.9252C9.24479 65.8507 8.76481 65.7568 8.27248 65.6434C7.77317 65.5329 7.27277 65.4394 6.77127 65.3627C6.62998 65.34 6.50157 65.3283 6.38605 65.3276C6.26353 65.3299 6.14986 65.3531 6.04503 65.3973C5.93321 65.4445 5.85562 65.5143 5.81226 65.6066C5.7619 65.7019 5.76178 65.809 5.81188 65.9278C5.9327 66.2143 6.11201 66.4639 6.34979 66.6764C6.58059 66.8919 6.84889 67.0792 7.15471 67.2383C7.45354 67.4004 7.7794 67.5387 8.13228 67.6534C8.48222 67.761 8.83822 67.8537 9.20029 67.9315C9.55241 68.0052 9.90012 68.0685 10.2434 68.1213C10.5867 68.1741 10.8996 68.2232 11.1822 68.2687C11.4659 68.2972 11.7661 68.3065 12.0829 68.2964C12.3996 68.2863 12.6998 68.2955 12.9835 68.324C13.2642 68.3456 13.5139 68.4008 13.7325 68.4897C13.9581 68.5757 14.1195 68.734 14.2167 68.9646C14.3228 69.2162 14.3264 69.4493 14.2276 69.6638C14.1287 69.8784 13.9675 70.0328 13.7438 70.1271C13.618 70.1802 13.4032 70.2172 13.0993 70.2384C12.7954 70.2595 12.4393 70.2739 12.0309 70.2814C11.6126 70.285 11.166 70.2799 10.691 70.2662C10.216 70.2524 9.74602 70.2407 9.28098 70.231C8.81299 70.2144 8.37536 70.2014 7.96808 70.192C7.55086 70.1786 7.19785 70.1711 6.90904 70.1694C6.55548 70.1703 6.26259 70.1004 6.03036 69.9596C5.79519 69.8118 5.63487 69.6366 5.54941 69.4339C5.47573 69.2592 5.47729 69.0775 5.55408 68.8887C5.62094 68.6959 5.77667 68.5479 6.02127 68.4447C6.20298 68.3681 6.41984 68.3261 6.67185 68.3186C6.41757 68.2036 6.14341 68.0805 5.84938 67.9493C5.55535 67.8181 5.27143 67.662 4.99761 67.4812C4.71385 67.2963 4.44975 67.0702 4.20532 66.8028C3.96088 66.5355 3.75615 66.2061 3.59112 65.8148C3.5086 65.6191 3.45497 65.4236 3.43021 65.2282C3.40546 65.0329 3.4175 64.8467 3.46634 64.6697C3.51223 64.4857 3.60136 64.3164 3.73372 64.1618C3.86314 64.0003 4.04371 63.8624 4.27543 63.7482C4.04691 63.6553 3.81599 63.5468 3.58267 63.423C3.34236 63.3021 3.11363 63.1598 2.89647 62.9962C2.67637 62.8256 2.47336 62.6272 2.28745 62.4011C2.10153 62.1749 1.94227 61.9046 1.80965 61.5901C1.7124 61.3595 1.64403 61.129 1.60454 60.8987C1.56505 60.6684 1.57082 60.4479 1.62185 60.237C1.66294 60.0221 1.75518 59.831 1.89858 59.6635C2.03903 59.489 2.24203 59.3458 2.50761 59.2338C2.92693 59.057 3.36654 58.9869 3.82645 59.0234C4.2834 59.053 4.72365 59.1307 5.14718 59.2567C5.28737 59.2963 5.46731 59.3522 5.68699 59.4242C5.90667 59.4962 6.13536 59.5602 6.37306 59.6164C6.61076 59.6726 6.84808 59.7083 7.08502 59.7236C7.31497 59.7419 7.51382 59.7157 7.68154 59.6449C7.8353 59.5801 7.91398 59.4934 7.9176 59.3849C7.91828 59.2694 7.8862 59.1347 7.82136 58.981C7.69759 58.6875 7.47614 58.4063 7.15702 58.1375C6.8379 57.8688 6.48826 57.6252 6.10809 57.4069C5.71799 57.1845 5.33121 56.9895 4.94776 56.822C4.55437 56.6504 4.23146 56.519 3.97903 56.4279C3.91243 56.4066 3.85685 56.3724 3.81231 56.3254C3.76777 56.2783 3.73371 56.2268 3.71013 56.1709C3.65709 56.0451 3.66584 55.9097 3.73641 55.7647C3.80402 55.6127 3.92868 55.4984 4.11039 55.4218C4.25016 55.3629 4.42159 55.3399 4.62469 55.3531C4.82778 55.3662 5.05243 55.4402 5.29863 55.5751C5.82118 55.7993 6.33418 56.0398 6.83761 56.2967C7.33111 56.5495 7.79262 56.8241 8.22212 57.1204C8.6417 57.4127 9.01382 57.7291 9.3385 58.0696C9.66023 58.4031 9.90509 58.7691 10.0731 59.1674C10.2911 59.6846 10.3457 60.1555 10.2366 60.5801C10.1246 60.9977 9.80307 61.3185 9.27192 61.5425C8.92249 61.6899 8.56602 61.762 8.20253 61.7589C7.83903 61.7557 7.47625 61.7153 7.11419 61.6375C6.74514 61.5626 6.38215 61.4729 6.02522 61.3682C5.66829 61.2635 5.32315 61.1868 4.9898 61.1381C4.84851 61.1153 4.72011 61.1036 4.60458 61.103C4.48207 61.1052 4.3684 61.1285 4.26357 61.1727C4.15175 61.2198 4.07416 61.2896 4.03079 61.382C3.98044 61.4773 3.98031 61.5843 4.03041 61.7031C4.15124 61.9897 4.33054 62.2392 4.56833 62.4517C4.79912 62.6672 5.06743 62.8545 5.37324 63.0137C5.67207 63.1757 5.99793 63.3141 6.35082 63.4287C6.70075 63.5363 7.05676 63.629 7.41882 63.7068C7.77095 63.7806 8.11866 63.8438 8.46194 63.8966C8.80523 63.9494 9.11816 63.9986 9.40074 64.044C9.68441 64.0726 9.98463 64.0818 10.3014 64.0717C10.6182 64.0616 10.9184 64.0708 11.2021 64.0994C11.4828 64.1209 11.7324 64.1762 11.951 64.2651C12.1766 64.351 12.338 64.5093 12.4353 64.74C12.4706 64.8238 12.4915 64.9221 12.4978 65.0346C12.5111 65.1443 12.5075 65.2528 12.4869 65.3602C12.4634 65.4607 12.425 65.5551 12.3717 65.6434C12.3155 65.7247 12.2434 65.7881 12.1555 65.8334Z" fill="#3D3D3D"/>
<path d="M2.46774 53.5114C2.51601 53.8646 2.65293 54.1942 2.87847 54.5002C3.09548 54.7997 3.36798 55.0572 3.69597 55.2727C4.01543 55.4816 4.36954 55.6361 4.75831 55.7361C5.13956 55.8371 5.52181 55.8614 5.90506 55.809C6.04784 55.7895 6.20411 55.7566 6.37387 55.7105C6.53611 55.6653 6.68776 55.5987 6.82881 55.5105C6.96132 55.4158 7.06718 55.2942 7.14638 55.1456C7.22559 54.9969 7.24978 54.8099 7.21897 54.5845C7.17173 54.2388 7.03584 53.9167 6.81132 53.6182C6.57826 53.3133 6.29773 53.053 5.96974 52.8376C5.63423 52.6232 5.26833 52.4665 4.87205 52.3676C4.47577 52.2686 4.086 52.2453 3.70275 52.2977C3.55245 52.3183 3.39994 52.3506 3.24521 52.3947C3.08194 52.4323 2.93781 52.498 2.81281 52.5916C2.68679 52.6777 2.59169 52.7941 2.52752 52.9406C2.45583 53.0882 2.4359 53.2785 2.46774 53.5114ZM0.40373 53.1964C0.364701 52.9109 0.360677 52.6014 0.39166 52.268C0.421616 51.9271 0.507771 51.6053 0.650123 51.3026C0.792475 50.9999 1.00162 50.7378 1.27756 50.5164C1.54496 50.2884 1.89659 50.1447 2.33245 50.0851C2.55789 50.0543 2.82126 50.0489 3.12255 50.069C3.41633 50.0901 3.72924 50.1392 4.0613 50.2163C4.1412 50.1288 4.19327 50.0337 4.21749 49.9308C4.24171 49.828 4.24612 49.7202 4.23071 49.6075C4.20914 49.4497 4.14043 49.283 4.02458 49.1075C3.9077 48.9244 3.764 48.7412 3.59349 48.5578C3.42298 48.3744 3.23368 48.1936 3.02559 48.0154C2.8175 47.8371 2.61096 47.6701 2.40595 47.5144C2.20095 47.3587 2.00978 47.2203 1.83246 47.0991C1.64659 46.9714 1.49062 46.8664 1.36455 46.7841C1.30476 46.7387 1.26972 46.6784 1.25945 46.6032C1.24507 46.498 1.2886 46.3964 1.39002 46.2983C1.48393 46.2013 1.62858 46.1394 1.82396 46.1127C2.01934 46.086 2.253 46.1153 2.52494 46.2006C2.79585 46.2784 3.09189 46.4561 3.41308 46.7337C3.63311 46.8874 3.8868 47.0632 4.17414 47.2613C4.46148 47.4593 4.73585 47.6744 4.99724 47.9066C5.25863 48.1388 5.48775 48.3869 5.68459 48.6509C5.88143 48.9149 5.99936 49.1897 6.03839 49.4753C6.06509 49.6706 6.06123 49.8664 6.02679 50.0625C5.99132 50.251 5.91879 50.4485 5.8092 50.6549C6.267 50.8679 6.69237 51.1236 7.08529 51.422C7.47822 51.7205 7.82795 52.0669 8.13448 52.4614C8.43998 52.8483 8.69426 53.2805 8.89732 53.758C9.10686 54.2269 9.24963 54.7394 9.32563 55.2955C9.35439 55.506 9.34644 55.7558 9.30178 56.0452C9.25712 56.3345 9.15832 56.6198 9.00537 56.901C8.84388 57.1757 8.62089 57.4205 8.33641 57.6354C8.05193 57.8504 7.688 57.9882 7.24463 58.0488C6.94404 58.0898 6.57665 58.0903 6.14247 58.0501C5.70829 58.0099 5.25617 57.9225 4.78609 57.7877C4.30747 57.6464 3.82969 57.4553 3.35275 57.2142C2.86727 56.9667 2.42293 56.6562 2.01974 56.2826C1.60903 55.91 1.26149 55.4676 0.977124 54.9553C0.685245 54.444 0.494114 53.8577 0.40373 53.1964Z" fill="#3D3D3D"/>
<path d="M8.00287 45.4802C7.64171 45.4344 7.28304 45.3086 6.92688 45.1028C6.57168 44.8895 6.21045 44.6334 5.84317 44.3345C5.4759 44.0356 5.10774 43.7136 4.73867 43.3686C4.36208 43.0226 3.97606 42.6908 3.5806 42.373C3.46976 42.2825 3.36454 42.2079 3.26493 42.1494C3.1578 42.0899 3.0478 42.053 2.93493 42.0387C2.81455 42.0234 2.71243 42.0449 2.62859 42.1031C2.53723 42.1603 2.48343 42.2528 2.4672 42.3807C2.42804 42.6892 2.45804 42.995 2.55718 43.2982C2.64881 43.6003 2.787 43.8969 2.97178 44.188C3.14904 44.478 3.36158 44.7611 3.60942 45.0373C3.85821 45.3058 4.11972 45.5646 4.39395 45.8135C4.66161 46.0539 4.93071 46.283 5.20123 46.5008C5.47176 46.7186 5.71786 46.9181 5.93954 47.0991C6.17065 47.2661 6.42576 47.4246 6.70489 47.5747C6.98401 47.7248 7.23912 47.8834 7.47023 48.0503C7.7023 48.2097 7.89059 48.3827 8.03512 48.5693C8.18716 48.7568 8.24743 48.9747 8.21591 49.223C8.18153 49.4938 8.06779 49.6973 7.87467 49.8333C7.68156 49.9694 7.46461 50.0221 7.22384 49.9916C7.0884 49.9744 6.88393 49.8987 6.61042 49.7646C6.33692 49.6305 6.0216 49.4643 5.66449 49.2661C5.30081 49.0594 4.91694 48.831 4.51289 48.5809C4.10884 48.3309 3.70807 48.085 3.31058 47.8434C2.91405 47.5943 2.54195 47.3636 2.19427 47.1513C1.84003 46.9305 1.53839 46.7469 1.28937 46.6006C0.983013 46.4241 0.764678 46.2168 0.634364 45.9785C0.505005 45.7327 0.454174 45.5007 0.48187 45.2825C0.505746 45.0944 0.598236 44.9379 0.759343 44.8131C0.91388 44.6798 1.12282 44.6299 1.38617 44.6633C1.5818 44.6882 1.79052 44.7605 2.01231 44.8804C1.84999 44.6534 1.67453 44.4094 1.48593 44.1484C1.29733 43.8875 1.12993 43.6101 0.983728 43.3163C0.830957 43.0141 0.715866 42.686 0.638453 42.3321C0.561041 41.9782 0.549075 41.5906 0.602556 41.1693C0.629297 40.9586 0.680939 40.7625 0.757485 40.5811C0.83403 40.3997 0.937808 40.2447 1.06882 40.116C1.20078 39.9799 1.36279 39.8781 1.55483 39.8107C1.74783 39.7358 1.97319 39.7071 2.23093 39.7245C2.07983 39.5295 1.93441 39.3199 1.79467 39.0957C1.64739 38.8706 1.52084 38.6328 1.41501 38.3824C1.31013 38.1244 1.23398 37.851 1.18655 37.5621C1.13912 37.2732 1.13689 36.9594 1.17987 36.6208C1.21138 36.3725 1.2678 36.1389 1.34912 35.9198C1.43044 35.7008 1.54604 35.5129 1.69592 35.356C1.83923 35.1907 2.0149 35.0716 2.22295 34.9986C2.43195 34.9181 2.67941 34.896 2.96534 34.9323C3.41679 34.9896 3.8323 35.1494 4.21187 35.4116C4.5924 35.6663 4.93429 35.9544 5.23755 36.2758C5.33895 36.3804 5.46663 36.5189 5.62059 36.6914C5.77455 36.8638 5.94027 37.0339 6.11775 37.2017C6.29524 37.3695 6.48264 37.5194 6.67995 37.6515C6.86973 37.7827 7.05492 37.8597 7.2355 37.8826C7.40103 37.9036 7.51258 37.8681 7.57014 37.776C7.62866 37.6764 7.66842 37.5438 7.68943 37.3783C7.72954 37.0622 7.67894 36.708 7.53763 36.3154C7.39632 35.9228 7.21595 35.5368 6.99654 35.1572C6.77055 34.7692 6.53369 34.4066 6.28597 34.0693C6.03168 33.7236 5.81818 33.448 5.64547 33.2426C5.59853 33.1908 5.56759 33.1333 5.55266 33.0702C5.53773 33.0072 5.53408 32.9456 5.54172 32.8854C5.55891 32.7499 5.63439 32.6372 5.76815 32.5471C5.90286 32.4495 6.06803 32.4132 6.26366 32.438C6.41415 32.4571 6.57395 32.5232 6.74307 32.6365C6.9122 32.7497 7.06944 32.9264 7.2148 33.1665C7.55449 33.6225 7.8777 34.0878 8.18443 34.5626C8.48459 35.0288 8.74617 35.4978 8.96918 35.9696C9.18562 36.4328 9.34891 36.8932 9.45905 37.3506C9.57015 37.8005 9.59848 38.2399 9.54404 38.6687C9.47337 39.2255 9.2844 39.6603 8.97712 39.973C8.67079 40.2781 8.23171 40.3944 7.65986 40.3219C7.28365 40.2741 6.93908 40.1577 6.62616 39.9728C6.31324 39.7878 6.01966 39.5708 5.74543 39.322C5.46367 39.0721 5.19464 38.8124 4.93832 38.5429C4.68201 38.2733 4.42187 38.0339 4.15791 37.8246C4.04707 37.734 3.94185 37.6595 3.84224 37.601C3.73511 37.5415 3.62511 37.5046 3.51224 37.4903C3.39186 37.475 3.28974 37.4965 3.2059 37.5546C3.11454 37.6118 3.06074 37.7044 3.04451 37.8323C3.00535 38.1408 3.03535 38.4466 3.13449 38.7497C3.22612 39.0519 3.36431 39.3485 3.54909 39.6395C3.72635 39.9296 3.93889 40.2127 4.18673 40.4888C4.43552 40.7574 4.69703 41.0162 4.97126 41.265C5.23892 41.5054 5.50802 41.7346 5.77854 41.9524C6.04907 42.1702 6.29517 42.3697 6.51685 42.5507C6.74796 42.7177 7.00307 42.8762 7.2822 43.0263C7.56132 43.1764 7.81643 43.3349 8.04754 43.5019C8.27961 43.6613 8.4679 43.8343 8.61242 44.0208C8.76447 44.2083 8.82474 44.4262 8.79322 44.6745C8.78176 44.7648 8.75054 44.8603 8.69955 44.9608C8.65608 45.0623 8.59852 45.1544 8.52686 45.2371C8.45616 45.3122 8.37561 45.3746 8.2852 45.4243C8.19575 45.4665 8.10164 45.4851 8.00287 45.4802Z" fill="#3D3D3D"/>
<path d="M5.79698 29.9322C5.6613 30.2619 5.61411 30.6156 5.65541 30.9935C5.69259 31.3615 5.79887 31.721 5.97425 32.0721C6.1455 32.4132 6.3741 32.7247 6.66003 33.0064C6.93895 33.2853 7.25726 33.4983 7.61496 33.6455C7.74822 33.7004 7.89984 33.7505 8.06982 33.7959C8.23278 33.8383 8.39739 33.8569 8.56365 33.8515C8.72578 33.8362 8.87842 33.7842 9.02156 33.6955C9.1647 33.6068 9.27958 33.4572 9.36618 33.2468C9.49898 32.9242 9.54329 32.5774 9.49909 32.2065C9.45078 31.8258 9.33893 31.4598 9.16355 31.1088C8.98115 30.7548 8.74348 30.4356 8.45053 30.1509C8.15759 29.8663 7.83226 29.6504 7.47456 29.5031C7.33429 29.4454 7.18618 29.3967 7.03023 29.3572C6.87015 29.3077 6.71255 29.292 6.55744 29.3102C6.40521 29.3214 6.26454 29.3742 6.13542 29.4687C5.99929 29.5603 5.88648 29.7148 5.79698 29.9322ZM4.17054 28.623C4.28024 28.3565 4.43223 28.0869 4.62651 27.8141C4.82367 27.5344 5.05982 27.2994 5.33497 27.1092C5.61012 26.919 5.92261 26.7974 6.27244 26.7446C6.61815 26.6818 6.9944 26.7342 7.4012 26.9016C7.61161 26.9882 7.84204 27.1159 8.09248 27.2846C8.3359 27.4504 8.58181 27.65 8.83019 27.8835C8.94323 27.848 9.03604 27.7919 9.10864 27.7151C9.18124 27.6384 9.23919 27.5474 9.2825 27.4422C9.34312 27.2949 9.36744 27.1163 9.35545 26.9063C9.34634 26.6893 9.31413 26.4587 9.25882 26.2145C9.2035 25.9703 9.13066 25.7188 9.04027 25.4602C8.94989 25.2015 8.85518 24.9534 8.75613 24.7158C8.65709 24.4781 8.56135 24.2624 8.46891 24.0685C8.37235 23.8647 8.29023 23.6956 8.22256 23.5611C8.19367 23.4918 8.19366 23.4221 8.22253 23.3519C8.26295 23.2537 8.35164 23.1877 8.4886 23.1539C8.61855 23.1171 8.7747 23.1363 8.95706 23.2114C9.13941 23.2864 9.32673 23.4291 9.519 23.6395C9.71417 23.8429 9.88088 24.1453 10.0191 24.5466C10.1322 24.79 10.2632 25.0695 10.4122 25.3851C10.5612 25.7007 10.6903 26.0245 10.7997 26.3566C10.9091 26.6887 10.9826 27.0183 11.0201 27.3455C11.0577 27.6726 11.0217 27.9694 10.912 28.236C10.8369 28.4183 10.7352 28.5856 10.607 28.7379C10.4816 28.8831 10.3196 29.0174 10.1212 29.1408C10.4101 29.5549 10.6494 29.9897 10.8392 30.4452C11.0291 30.9006 11.1574 31.3758 11.2243 31.8709C11.2941 32.3589 11.2969 32.8604 11.2326 33.3753C11.1782 33.886 11.0442 34.4009 10.8305 34.9199C10.7497 35.1163 10.6173 35.3284 10.4333 35.5561C10.2494 35.7839 10.0206 35.9809 9.74714 36.1472C9.46952 36.3036 9.15372 36.4032 8.79976 36.4462C8.4458 36.4891 8.06191 36.4255 7.6481 36.2551C7.36756 36.1396 7.04966 35.9555 6.69442 35.7026C6.33918 35.4498 5.99219 35.147 5.65344 34.7943C5.31056 34.4318 4.99347 34.0265 4.70215 33.5785C4.4067 33.1206 4.1785 32.6289 4.01753 32.1033C3.84955 31.5748 3.7713 31.0177 3.78278 30.4319C3.78724 29.8432 3.91649 29.2402 4.17054 28.623Z" fill="#3D3D3D"/>
<path d="M10.2585 21.0526C10.2311 21.0799 10.209 21.1062 10.1921 21.1314C10.1753 21.1566 10.1563 21.185 10.1352 21.2165C9.97492 21.456 9.87247 21.7114 9.82785 21.9827C9.78322 22.254 9.78065 22.5306 9.82015 22.8126C9.85757 23.084 9.92759 23.3544 10.0302 23.6239C10.1371 23.887 10.2523 24.1375 10.3761 24.3754C10.4935 24.6091 10.6151 24.8229 10.741 25.0166C10.8711 25.204 10.9834 25.3567 11.0779 25.4747C11.112 25.1781 11.1346 24.8647 11.1457 24.5345C11.161 24.1979 11.172 23.8814 11.1788 23.5848C11.1857 23.2882 11.1861 23.0284 11.1801 22.8054C11.1784 22.5761 11.1797 22.4173 11.1841 22.3289C11.1974 21.9272 11.1642 21.6221 11.0846 21.4137C10.9987 21.2011 10.8991 21.0568 10.7856 20.9809C10.691 20.9176 10.5943 20.8986 10.4954 20.9236C10.4007 20.9424 10.3217 20.9854 10.2585 21.0526ZM9.1814 19.8391C9.53147 19.3159 9.91904 19.0094 10.3441 18.9197C10.7692 18.8299 11.2055 18.9348 11.6531 19.2343C11.9178 19.4114 12.1488 19.6663 12.346 19.999C12.5432 20.3317 12.6792 20.7695 12.754 21.3123C12.8225 21.851 12.8225 22.5126 12.7539 23.2971C12.6832 24.0711 12.5186 24.9922 12.2602 26.0604C12.4641 26.1512 12.6744 26.1505 12.8913 26.0583C13.1018 25.9619 13.2977 25.7781 13.4791 25.5071C13.6731 25.2171 13.8388 24.8808 13.9762 24.4982C14.1115 24.105 14.2205 23.7034 14.3032 23.2934C14.3901 22.877 14.4613 22.4638 14.5167 22.0536C14.5657 21.6393 14.6032 21.2628 14.629 20.9242C14.659 20.5793 14.6784 20.2911 14.6872 20.0597C14.7002 19.822 14.7131 19.6664 14.7259 19.5928C14.726 19.5107 14.7377 19.4455 14.7609 19.3972C14.7883 19.3426 14.8147 19.2963 14.84 19.2585C14.8906 19.1828 14.9517 19.1325 15.0233 19.1073C15.0885 19.078 15.1569 19.0644 15.2284 19.0667C15.2979 19.0584 15.3652 19.0669 15.4303 19.0922C15.4892 19.1134 15.5376 19.1366 15.5754 19.1619C15.6321 19.1999 15.6972 19.2526 15.7707 19.32C15.838 19.3832 15.8946 19.4895 15.9406 19.639C15.951 19.6916 15.9644 19.8557 15.9808 20.1313C16.0014 20.4006 16.0113 20.7403 16.0107 21.1505C16.01 21.5607 15.9903 22.0266 15.9515 22.5483C15.9107 23.0594 15.8373 23.5852 15.7312 24.1256C15.6293 24.6598 15.4833 25.1917 15.2931 25.7215C15.1092 26.2555 14.8696 26.7432 14.5744 27.1844C14.3213 27.5627 14.0232 27.8514 13.68 28.0507C13.341 28.2436 12.9789 28.3619 12.5939 28.4054C12.2131 28.4427 11.8261 28.4073 11.4329 28.2994C11.0397 28.1914 10.6666 28.0194 10.3136 27.7832C10.0425 27.6018 9.7821 27.35 9.53231 27.0277C9.27621 26.7012 9.05175 26.3275 8.85892 25.9064C8.66609 25.4854 8.51224 25.0266 8.39737 24.5299C8.28041 24.0228 8.22447 23.5062 8.22955 22.9803C8.23463 22.4544 8.31019 21.9255 8.45623 21.3935C8.60648 20.8553 8.8482 20.3371 9.1814 19.8391Z" fill="#3D3D3D"/>
<path d="M20.6194 10.5845C20.5848 10.6018 20.5555 10.6198 20.5316 10.6385C20.5077 10.6571 20.4808 10.6781 20.4509 10.7014C20.2236 10.8786 20.0462 11.0891 19.9188 11.3327C19.7913 11.5763 19.7021 11.8382 19.6512 12.1183C19.6017 12.3877 19.5833 12.6665 19.5963 12.9545C19.6153 13.2379 19.6462 13.5119 19.6891 13.7766C19.7273 14.0353 19.7758 14.2764 19.8346 14.4999C19.8993 14.7186 19.9581 14.8989 20.0108 15.0405C20.1362 14.7696 20.256 14.4791 20.37 14.169C20.4901 13.8542 20.5998 13.557 20.6993 13.2775C20.7987 12.998 20.8806 12.7515 20.9449 12.5379C21.0152 12.3196 21.0662 12.1692 21.098 12.0867C21.2366 11.7093 21.3008 11.4093 21.2906 11.1864C21.2757 10.9576 21.2263 10.7894 21.1423 10.6817C21.0724 10.592 20.9865 10.5435 20.8847 10.5363C20.7889 10.5244 20.7005 10.5405 20.6194 10.5845ZM19.9771 9.09448C20.4735 8.70743 20.9377 8.53793 21.3695 8.586C21.8012 8.63407 22.1827 8.87045 22.5138 9.29515C22.7096 9.54637 22.849 9.86086 22.9319 10.2386C23.0149 10.6164 23.0067 11.0747 22.9076 11.6136C22.8037 12.1466 22.5962 12.7748 22.2851 13.4982C21.9752 14.211 21.5301 15.0341 20.9498 15.9674C21.115 16.1175 21.3149 16.1828 21.5497 16.1633C21.7799 16.1377 22.0235 16.0247 22.2807 15.8242C22.5559 15.6097 22.8187 15.3423 23.0691 15.022C23.3208 14.6911 23.5503 14.344 23.7574 13.9805C23.9705 13.6124 24.1677 13.2423 24.3489 12.8703C24.5254 12.4922 24.679 12.1465 24.8097 11.833C24.9463 11.5149 25.0551 11.2473 25.136 11.0304C25.2229 10.8087 25.284 10.665 25.3191 10.5991C25.345 10.5212 25.3765 10.463 25.4137 10.4244C25.4569 10.3811 25.4965 10.3454 25.5324 10.3175C25.6041 10.2615 25.6779 10.2328 25.7538 10.2314C25.8249 10.224 25.8941 10.2326 25.9614 10.2571C26.0299 10.271 26.0911 10.3002 26.1451 10.3447C26.1943 10.3832 26.233 10.4204 26.2609 10.4563C26.3029 10.5102 26.3482 10.5806 26.3969 10.6677C26.4409 10.7488 26.4613 10.8675 26.4582 11.0239C26.4516 11.0771 26.4128 11.2371 26.342 11.504C26.2771 11.7661 26.18 12.0919 26.0507 12.4812C25.9214 12.8705 25.7566 13.3067 25.5563 13.7899C25.3573 14.2624 25.1226 14.7386 24.8524 15.2186C24.5882 15.6938 24.2828 16.1532 23.936 16.5966C23.5939 17.046 23.2136 17.4339 22.7948 17.7604C22.4359 18.0402 22.0623 18.2209 21.6739 18.3025C21.2915 18.3794 20.9107 18.3782 20.5314 18.2988C20.1581 18.2147 19.8017 18.0598 19.4622 17.834C19.1227 17.6082 18.8223 17.3279 18.5612 16.9929C18.3607 16.7357 18.1923 16.4149 18.0562 16.0306C17.9154 15.6402 17.8194 15.2149 17.7684 14.7547C17.7173 14.2944 17.7151 13.8105 17.7617 13.3028C17.8097 12.7846 17.9185 12.2766 18.0883 11.7788C18.258 11.281 18.4956 10.8025 18.8011 10.3431C19.1125 9.8791 19.5045 9.46289 19.9771 9.09448Z" fill="#3D3D3D"/>
<path d="M29.4623 12.4244C29.3171 12.0905 29.2419 11.718 29.2366 11.3067C29.2383 10.8924 29.2738 10.451 29.3429 9.98252C29.4121 9.51405 29.5006 9.03303 29.6084 8.53946C29.7133 8.03893 29.8011 7.5375 29.8721 7.03517C29.8932 6.89363 29.9035 6.7651 29.9029 6.64958C29.8992 6.5271 29.8747 6.4137 29.8293 6.30937C29.7809 6.19809 29.7103 6.1213 29.6174 6.07898C29.5215 6.0297 29.4145 6.03079 29.2962 6.08222C29.0111 6.20628 28.7636 6.38839 28.5538 6.62856C28.3409 6.86177 28.1566 7.13218 28.001 7.43977C27.8423 7.74041 27.7076 8.06781 27.597 8.42197C27.4934 8.7731 27.4047 9.13013 27.331 9.49305C27.2612 9.84599 27.2018 10.1944 27.1529 10.5382C27.104 10.8821 27.0584 11.1956 27.0161 11.4787C26.9908 11.7626 26.985 12.0629 26.9987 12.3796C27.0123 12.6962 27.0065 12.9965 26.9812 13.2805C26.9628 13.5614 26.9104 13.8117 26.8239 14.0313C26.7405 14.2578 26.584 14.421 26.3545 14.5208C26.1042 14.6298 25.8711 14.636 25.6555 14.5396C25.4398 14.4432 25.2836 14.2837 25.1868 14.0611C25.1323 13.9359 25.0928 13.7215 25.0682 13.4179C25.0437 13.1143 25.0253 12.7583 25.0131 12.3501C25.0049 11.9318 25.0049 11.4852 25.0133 11.0101C25.0216 10.5349 25.028 10.0648 25.0325 9.59971C25.0438 9.13157 25.0519 8.69381 25.0567 8.28645C25.0653 7.86911 25.0689 7.51604 25.0673 7.22723C25.0624 6.8737 25.129 6.58004 25.2672 6.34623C25.4123 6.10941 25.5857 5.94712 25.7874 5.85938C25.9612 5.78373 26.143 5.78324 26.3326 5.85789C26.5262 5.92257 26.6759 6.07661 26.7818 6.32004C26.8605 6.50087 26.905 6.71724 26.9153 6.96915C27.0275 6.71358 27.1475 6.43805 27.2753 6.14256C27.4032 5.84707 27.556 5.5614 27.7338 5.28555C27.9154 4.99972 28.1386 4.73309 28.4031 4.48565C28.6677 4.23821 28.9947 4.02977 29.3842 3.86033C29.5789 3.77561 29.7738 3.71977 29.9689 3.69281C30.1639 3.66585 30.3502 3.67579 30.5278 3.72263C30.7122 3.76644 30.8825 3.85364 31.0386 3.98425C31.2016 4.11184 31.3415 4.29084 31.4583 4.52126C31.5487 4.2917 31.6545 4.05957 31.7757 3.82486C31.8939 3.5832 32.0336 3.35288 32.1947 3.1339C32.3628 2.91188 32.5589 2.70665 32.7829 2.51819C33.007 2.32973 33.2755 2.16742 33.5885 2.03126C33.818 1.93141 34.0477 1.86044 34.2775 1.81836C34.5073 1.77627 34.7279 1.77954 34.9393 1.82819C35.1547 1.86685 35.3469 1.95693 35.5159 2.09842C35.692 2.23689 35.8375 2.43827 35.9525 2.70256C36.134 3.11985 36.2091 3.55865 36.1778 4.01894C36.1534 4.4762 36.0806 4.91729 35.9594 5.34222C35.9213 5.48285 35.8676 5.66341 35.798 5.88389C35.7285 6.10437 35.667 6.33377 35.6136 6.57209C35.5601 6.81041 35.527 7.04811 35.5144 7.28521C35.4987 7.51536 35.5272 7.71389 35.5998 7.88081C35.6664 8.03382 35.7539 8.11152 35.8625 8.11391C35.978 8.11328 36.1123 8.07968 36.2653 8.01312C36.5574 7.88604 36.836 7.66143 37.1012 7.33929C37.3663 7.01716 37.6059 6.66478 37.82 6.28218C38.0379 5.88959 38.2285 5.50063 38.3917 5.11531C38.5589 4.72001 38.6866 4.39564 38.7748 4.14219C38.7954 4.07536 38.8289 4.0194 38.8755 3.97433C38.9221 3.92926 38.9732 3.89462 39.0288 3.87041C39.154 3.81595 39.2895 3.82318 39.4353 3.8921C39.588 3.95799 39.7037 4.08135 39.7824 4.26218C39.8429 4.40128 39.8677 4.57244 39.8569 4.77567C39.846 4.9789 39.7746 5.20437 39.6425 5.45208C39.4242 5.97713 39.1895 6.49281 38.9383 6.99911C38.6911 7.49544 38.4217 7.96001 38.1303 8.39284C37.8428 8.81569 37.5306 9.19136 37.1938 9.51987C36.8639 9.84534 36.5008 10.0943 36.1043 10.2668C35.5897 10.4907 35.1194 10.5505 34.6936 10.4463C34.2747 10.339 33.9503 10.0211 33.7203 9.49252C33.569 9.14477 33.4929 8.78914 33.4919 8.42564C33.4909 8.06213 33.5273 7.69892 33.601 7.336C33.6717 6.96612 33.7573 6.60214 33.858 6.24405C33.9586 5.88597 34.0314 5.53998 34.0764 5.2061C34.0975 5.06456 34.1078 4.93603 34.1071 4.82051C34.1035 4.69803 34.079 4.58463 34.0336 4.48031C33.9852 4.36903 33.9145 4.29223 33.8217 4.24991C33.7258 4.20064 33.6187 4.20172 33.5005 4.25316C33.2154 4.37721 32.9679 4.55933 32.758 4.79949C32.5452 5.03271 32.3609 5.30311 32.2052 5.6107C32.0465 5.91134 31.9119 6.23874 31.8013 6.5929C31.6976 6.94403 31.609 7.30106 31.5352 7.66398C31.4655 8.01692 31.4061 8.36532 31.3572 8.70918C31.3083 9.05304 31.2627 9.36651 31.2204 9.64958C31.1951 9.93356 31.1893 10.2339 31.2029 10.5505C31.2166 10.8671 31.2108 11.1674 31.1854 11.4514C31.1671 11.7324 31.1146 11.9826 31.0282 12.2022C30.9448 12.4287 30.7883 12.5919 30.5588 12.6918C30.4753 12.7281 30.3774 12.75 30.2649 12.7576C30.1554 12.7722 30.0468 12.7698 29.9392 12.7504C29.8384 12.7281 29.7436 12.6907 29.6547 12.6384C29.5727 12.5831 29.5086 12.5118 29.4623 12.4244Z" fill="#3D3D3D"/>
<path d="M41.8571 2.53919C41.5042 2.59005 41.1756 2.72937 40.8713 2.95715C40.5734 3.17635 40.3179 3.45072 40.1049 3.78029C39.8983 4.10127 39.7464 4.4565 39.6493 4.84599C39.5511 5.22797 39.5296 5.61038 39.5847 5.99324C39.6053 6.13588 39.6393 6.2919 39.6867 6.46132C39.733 6.62323 39.8008 6.77438 39.89 6.91479C39.9856 7.0466 40.108 7.15156 40.2572 7.22968C40.4064 7.30779 40.5936 7.33062 40.8188 7.29815C41.1642 7.24838 41.4852 7.11014 41.7821 6.88344C42.0853 6.64815 42.3435 6.36573 42.5565 6.03616C42.7685 5.69909 42.9225 5.33206 43.0185 4.93506C43.1145 4.53807 43.135 4.14814 43.0798 3.76528C43.0581 3.61514 43.0247 3.46287 42.9795 3.30847C42.9406 3.14548 42.874 3.00183 42.7794 2.87752C42.6924 2.75213 42.5753 2.65789 42.4283 2.59479C42.2802 2.52418 42.0898 2.50565 41.8571 2.53919ZM42.1569 0.472931C42.4422 0.431812 42.7516 0.425523 43.0853 0.454064C43.4264 0.481523 43.7488 0.565319 44.0526 0.705451C44.3563 0.845583 44.6199 1.0528 44.8433 1.32712C45.0732 1.59284 45.2195 1.94341 45.2823 2.37882C45.3148 2.60403 45.3221 2.86735 45.3042 3.16878C45.2853 3.4627 45.2385 3.77597 45.1638 4.10858C45.2519 4.18784 45.3474 4.23921 45.4504 4.26268C45.5534 4.28615 45.6612 4.28976 45.7738 4.27353C45.9314 4.25081 46.0976 4.18088 46.2723 4.06374C46.4545 3.94552 46.6367 3.80049 46.8188 3.62864C47.0009 3.45679 47.1804 3.26617 47.3571 3.05678C47.5338 2.8474 47.6993 2.63964 47.8535 2.4335C48.0077 2.22736 48.1447 2.03519 48.2646 1.85698C48.391 1.67018 48.4948 1.51345 48.5762 1.38678C48.6211 1.32665 48.6812 1.29118 48.7562 1.28036C48.8613 1.26521 48.9633 1.30799 49.0621 1.40869C49.1598 1.50188 49.2228 1.64607 49.2509 1.84126C49.279 2.03644 49.2514 2.27031 49.1681 2.54286C49.0923 2.81433 48.9167 3.11167 48.6415 3.43488C48.4895 3.65603 48.3155 3.911 48.1195 4.19979C47.9236 4.48857 47.7105 4.7645 47.4802 5.02759C47.2499 5.29067 47.0035 5.5216 46.741 5.72037C46.4784 5.91913 46.2045 6.03908 45.9193 6.08019C45.7241 6.10833 45.5283 6.10589 45.332 6.07289C45.1432 6.0388 44.9452 5.96772 44.738 5.85965C44.5284 6.319 44.2758 6.74622 43.9802 7.14132C43.6847 7.53642 43.3408 7.88868 42.9486 8.19809C42.5639 8.50642 42.1336 8.76386 41.6576 8.9704C41.1902 9.18337 40.6787 9.32989 40.1232 9.40997C39.913 9.44026 39.6631 9.43414 39.3734 9.3916C39.0838 9.34906 38.7978 9.25235 38.5155 9.10146C38.2396 8.94199 37.9932 8.7208 37.7761 8.4379C37.5591 8.155 37.4187 7.79209 37.3548 7.34917C37.3116 7.04889 37.3084 6.68152 37.3454 6.24706C37.3824 5.8126 37.4666 5.35984 37.5979 4.88879C37.7357 4.40915 37.9233 3.92999 38.1608 3.45129C38.4048 2.96401 38.7121 2.51741 39.0827 2.11149C39.4522 1.69806 39.8921 1.3473 40.4023 1.05919C40.9114 0.763574 41.4963 0.568155 42.1569 0.472931Z" fill="#3D3D3D"/>
<path d="M49.9635 7.98965C50.0067 7.62816 50.1299 7.26859 50.3331 6.91094C50.5438 6.5542 50.7973 6.19111 51.0935 5.82167C51.3897 5.45224 51.709 5.08174 52.0513 4.71017C52.3946 4.33108 52.7236 3.94265 53.0385 3.54489C53.1282 3.4334 53.202 3.32763 53.2598 3.2276C53.3185 3.12004 53.3546 3.00977 53.3681 2.89681C53.3825 2.77631 53.3603 2.67436 53.3015 2.59094C53.2436 2.5 53.1507 2.44688 53.0227 2.43157C52.7139 2.39466 52.4083 2.42688 52.1059 2.52823C51.8044 2.62205 51.5089 2.7624 51.2192 2.94929C50.9304 3.12865 50.6488 3.34325 50.3745 3.59309C50.1077 3.84383 49.8509 4.10721 49.604 4.38325C49.3656 4.65265 49.1384 4.9234 48.9226 5.19551C48.7067 5.46761 48.5091 5.71516 48.3297 5.93814C48.1644 6.17046 48.0077 6.42673 47.8596 6.70693C47.7116 6.98714 47.5549 7.2434 47.3896 7.47572C47.2319 7.70894 47.0603 7.89848 46.8748 8.04436C46.6884 8.19777 46.471 8.25962 46.2224 8.22991C45.9513 8.1975 45.747 8.08524 45.6096 7.89312C45.4721 7.701 45.4178 7.48444 45.4466 7.24345C45.4628 7.10789 45.537 6.90288 45.6691 6.6284C45.8012 6.35393 45.9651 6.03742 46.1607 5.67887C46.3648 5.31369 46.5904 4.92817 46.8375 4.52231C47.0846 4.11645 47.3275 3.71391 47.5662 3.31467C47.8124 2.91634 48.0405 2.54257 48.2503 2.19336C48.4685 1.83751 48.6498 1.53455 48.7943 1.28447C48.9686 0.97684 49.1744 0.757002 49.4117 0.624958C49.6565 0.493815 49.8881 0.441298 50.1065 0.467406C50.2948 0.489912 50.4519 0.581262 50.5779 0.741456C50.7123 0.89502 50.7638 1.10359 50.7323 1.36718C50.7089 1.56299 50.638 1.77222 50.5197 1.99488C50.7456 1.83091 50.9883 1.65368 51.2479 1.46319C51.5074 1.2727 51.7836 1.10328 52.0763 0.954947C52.3774 0.799981 52.7047 0.682506 53.058 0.602521C53.4113 0.522537 53.7988 0.507751 54.2205 0.558166C54.4314 0.583373 54.6278 0.633588 54.8098 0.708812C54.9918 0.784035 55.1475 0.886683 55.2771 1.01675C55.4142 1.14772 55.5172 1.30898 55.586 1.50053C55.6623 1.69298 55.6926 1.91813 55.6771 2.17598C55.871 2.02348 56.0795 1.87653 56.3027 1.73516C56.5267 1.58625 56.7636 1.45798 57.0132 1.35033C57.2704 1.24358 57.5433 1.16543 57.8319 1.1159C58.1204 1.06637 58.4341 1.06186 58.773 1.10237C59.0216 1.13208 59.2556 1.1868 59.4753 1.26652C59.6949 1.34625 59.8837 1.46047 60.0416 1.60921C60.2079 1.75131 60.3283 1.92612 60.4028 2.13363C60.4848 2.34204 60.5088 2.58933 60.4745 2.87551C60.4205 3.32737 60.2638 3.74404 60.0043 4.1255C59.7523 4.50787 59.4668 4.85185 59.1476 5.15743C59.0438 5.2596 58.9062 5.38828 58.7348 5.54349C58.5635 5.6987 58.3946 5.86565 58.2281 6.04436C58.0616 6.22306 57.913 6.41154 57.7824 6.6098C57.6526 6.80054 57.577 6.98628 57.5554 7.16702C57.5356 7.3327 57.5719 7.44399 57.6644 7.50088C57.7644 7.55867 57.8973 7.59747 58.063 7.61727C58.3793 7.65508 58.7332 7.60191 59.1247 7.45775C59.5163 7.31358 59.901 7.13041 60.2789 6.90824C60.6653 6.67944 61.0262 6.43995 61.3616 6.18978C61.7055 5.93298 61.9795 5.71748 62.1837 5.54328C62.2352 5.49597 62.2924 5.46461 62.3554 5.44922C62.4183 5.43383 62.4799 5.42974 62.5401 5.43694C62.6757 5.45314 62.789 5.52779 62.88 5.66089C62.9786 5.7949 63.0162 5.9598 62.9928 6.15561C62.9748 6.30623 62.9098 6.46651 62.7978 6.63645C62.6858 6.80639 62.5103 6.96491 62.2712 7.11202C61.8177 7.45502 61.3547 7.78161 60.8822 8.09178C60.4182 8.39532 59.9511 8.66031 59.481 8.88674C59.0193 9.10654 58.5602 9.27318 58.1035 9.38665C57.6545 9.50101 57.2153 9.53254 56.786 9.48123C56.2287 9.41461 55.7926 9.2288 55.4777 8.9238C55.1703 8.6197 55.0508 8.18148 55.1193 7.60912C55.1643 7.23257 55.2781 6.88716 55.4608 6.5729C55.6435 6.25864 55.8583 5.9635 56.1052 5.68746C56.353 5.4039 56.6107 5.13298 56.8784 4.87471C57.146 4.61644 57.3836 4.35457 57.591 4.0891C57.6807 3.9776 57.7545 3.87184 57.8123 3.77181C57.871 3.66424 57.9071 3.55398 57.9206 3.44101C57.935 3.32052 57.9128 3.21856 57.854 3.13515C57.7961 3.04421 57.7032 2.99108 57.5752 2.97578C57.2664 2.93887 56.9608 2.97109 56.6584 3.07243C56.3569 3.16625 56.0614 3.3066 55.7717 3.4935C55.4829 3.67285 55.2013 3.88745 54.927 4.13729C54.6602 4.38803 54.4034 4.65142 54.1565 4.92745C53.9181 5.19686 53.6909 5.46761 53.4751 5.73971C53.2592 6.01182 53.0616 6.25936 52.8822 6.48235C52.7169 6.71467 52.5602 6.97093 52.4122 7.25114C52.2641 7.53134 52.1074 7.7876 51.9421 8.01992C51.7844 8.25314 51.6128 8.44269 51.4273 8.58857C51.2409 8.74198 51.0235 8.80383 50.7749 8.77412C50.6846 8.76331 50.5889 8.73278 50.488 8.68252C50.3861 8.6398 50.2936 8.58291 50.2105 8.51186C50.1348 8.4417 50.0718 8.36161 50.0215 8.27156C49.9787 8.18242 49.9594 8.08845 49.9635 7.98965Z" fill="#3D3D3D"/>
<path d="M65.2889 5.563C64.9578 5.43099 64.6035 5.38775 64.2261 5.43326C63.8586 5.47453 63.5002 5.58481 63.1512 5.76409C62.8119 5.93913 62.503 6.17118 62.2245 6.46024C61.9488 6.74225 61.7393 7.06291 61.5961 7.42223C61.5427 7.55609 61.4943 7.70826 61.4508 7.87873C61.4102 8.04215 61.3935 8.20696 61.4007 8.37315C61.4178 8.5351 61.4715 8.68715 61.5618 8.82929C61.6521 8.97144 61.8029 9.08464 62.0143 9.1689C62.3384 9.29809 62.6856 9.33853 63.056 9.29021C63.4362 9.23766 63.8008 9.12174 64.1499 8.94246C64.5018 8.75613 64.8184 8.51492 65.0998 8.21882C65.3811 7.92272 65.5934 7.59501 65.7366 7.23569C65.7928 7.09478 65.8398 6.94614 65.8777 6.78976C65.9254 6.62914 65.9393 6.47138 65.9194 6.31648C65.9065 6.16438 65.8521 6.02431 65.7562 5.89625C65.6631 5.76115 65.5073 5.65007 65.2889 5.563ZM66.5799 3.92207C66.8477 4.0288 67.119 4.17778 67.3938 4.369C67.6757 4.56304 67.9133 4.79656 68.1066 5.06957C68.2999 5.34258 68.4249 5.6537 68.4816 6.00292C68.5482 6.34791 68.5001 6.72472 68.3372 7.13336C68.2529 7.34472 68.1279 7.57655 67.962 7.82886C67.7989 8.07411 67.602 8.32223 67.3713 8.5732C67.408 8.68583 67.4652 8.77802 67.5427 8.84976C67.6203 8.92149 67.7119 8.97843 67.8176 9.02056C67.9655 9.07954 68.1444 9.10187 68.3543 9.08754C68.5712 9.07601 68.8014 9.04124 69.045 8.98321C69.2886 8.92518 69.5392 8.84953 69.7968 8.75627C70.0545 8.66302 70.3015 8.56555 70.538 8.46386C70.7745 8.36218 70.9892 8.26404 71.182 8.16945C71.3847 8.07062 71.5529 7.98662 71.6867 7.91746C71.7556 7.8878 71.8254 7.88701 71.8958 7.9151C71.9944 7.95442 72.0614 8.04237 72.0968 8.17894C72.135 8.30847 72.1176 8.46483 72.0446 8.64801C71.9715 8.83119 71.8309 9.02009 71.6227 9.2147C71.4215 9.41211 71.121 9.58218 70.7212 9.7249C70.4791 9.84067 70.2011 9.9748 69.8872 10.1273C69.5733 10.2798 69.2509 10.4125 68.92 10.5256C68.5892 10.6386 68.2604 10.7158 67.9337 10.757C67.607 10.7982 67.3098 10.7655 67.042 10.6588C66.8589 10.5857 66.6904 10.4859 66.5368 10.3594C66.3901 10.2356 66.254 10.0752 66.1285 9.87816C65.7175 10.1716 65.2854 10.4158 64.8322 10.6107C64.3789 10.8055 63.9051 10.9392 63.4108 11.0116C62.9236 11.0868 62.4222 11.0952 61.9066 11.0366C61.3953 10.9879 60.879 10.8596 60.3576 10.6518C60.1603 10.5732 59.9468 10.4431 59.717 10.2617C59.4872 10.0803 59.2877 9.85377 59.1184 9.58214C58.9589 9.30627 58.8557 8.99161 58.8088 8.63815C58.7619 8.28469 58.8213 7.90012 58.987 7.48443C59.0994 7.20262 59.28 6.88269 59.5289 6.52466C59.7777 6.16662 60.0766 5.81628 60.4255 5.47362C60.7842 5.12673 61.186 4.80514 61.6307 4.50884C62.0853 4.20832 62.5744 3.97465 63.0982 3.80784C63.6247 3.63399 64.1809 3.54953 64.7669 3.55448C65.3556 3.55239 65.9599 3.67492 66.5799 3.92207Z" fill="#3D3D3D"/>
<path d="M74.3941 10.0138C74.3666 9.98659 74.3401 9.96466 74.3148 9.94798C74.2894 9.9313 74.2609 9.91254 74.2293 9.89169C73.9885 9.73324 73.7323 9.63274 73.4607 9.59017C73.1891 9.54761 72.9124 9.54715 72.6308 9.58879C72.3597 9.62826 72.0898 9.70034 71.8211 9.80501C71.5588 9.91385 71.3092 10.031 71.0722 10.1566C70.8394 10.2757 70.6266 10.399 70.4339 10.5264C70.2474 10.6579 70.0956 10.7714 69.9783 10.8667C70.2751 10.8986 70.5887 10.9188 70.919 10.9274C71.2557 10.9401 71.5723 10.9488 71.869 10.9533C72.1656 10.9579 72.4254 10.9563 72.6483 10.9487C72.8776 10.9452 73.0364 10.9453 73.1248 10.949C73.5267 10.9592 73.8315 10.9238 74.0393 10.8426C74.2512 10.7551 74.3947 10.6543 74.4698 10.5403C74.5323 10.4453 74.5507 10.3484 74.5248 10.2497C74.5053 10.1551 74.4618 10.0765 74.3941 10.0138ZM75.5993 8.92745C76.1252 9.27354 76.4346 9.65877 76.5276 10.0832C76.6205 10.5075 76.519 10.9446 76.223 11.3945C76.0478 11.6606 75.7947 11.8935 75.4635 12.0932C75.1323 12.2929 74.6956 12.4322 74.1533 12.5112C73.6152 12.5838 72.9536 12.5888 72.1686 12.5261C71.3941 12.4613 70.4717 12.3037 69.4016 12.0534C69.3124 12.258 69.3147 12.4684 69.4085 12.6845C69.5065 12.8943 69.6918 13.0888 69.9642 13.2681C70.2556 13.4599 70.5932 13.623 70.9768 13.7575C71.371 13.8898 71.7734 13.9957 72.1841 14.0753C72.6011 14.1591 73.0149 14.2271 73.4254 14.2794C73.8401 14.3253 74.2169 14.3599 74.5557 14.3831C74.9008 14.4105 75.1891 14.4277 75.4206 14.4348C75.6584 14.446 75.8141 14.4577 75.8878 14.4699C75.9698 14.4694 76.0351 14.4806 76.0836 14.5034C76.1385 14.5304 76.1849 14.5565 76.2229 14.5815C76.299 14.6315 76.3498 14.6922 76.3755 14.7636C76.4053 14.8286 76.4194 14.8969 76.4177 14.9684C76.4266 15.0378 76.4185 15.1052 76.3937 15.1705C76.373 15.2296 76.3501 15.2781 76.3251 15.3161C76.2876 15.3731 76.2354 15.4386 76.1685 15.5127C76.1058 15.5804 75.9999 15.6378 75.8508 15.6849C75.7983 15.6958 75.6343 15.7104 75.3588 15.7289C75.0897 15.7515 74.7501 15.7641 74.3399 15.7665C73.9297 15.7689 73.4636 15.7528 72.9417 15.718C72.4303 15.6811 71.904 15.6116 71.3627 15.5096C70.8278 15.4118 70.2948 15.2698 69.7635 15.0837C69.2282 14.9038 68.7387 14.668 68.2952 14.3761C67.9151 14.1259 67.6241 13.83 67.4222 13.4883C67.2267 13.1508 67.1057 12.7897 67.0592 12.405C67.0191 12.0244 67.0515 11.6372 67.1564 11.2432C67.2614 10.8492 67.4306 10.4748 67.6641 10.12C67.8434 9.84755 68.0932 9.58522 68.4136 9.33298C68.7381 9.07441 69.1102 8.84712 69.5297 8.65109C69.9493 8.45507 70.407 8.29773 70.9027 8.17909C71.409 8.05828 71.9251 7.99842 72.451 7.99951C72.9769 8.00059 73.5064 8.07213 74.0394 8.21411C74.5788 8.36027 75.0988 8.59805 75.5993 8.92745Z" fill="#3D3D3D"/>
<path d="M85.0039 20.3258C84.9863 20.2913 84.9681 20.2622 84.9493 20.2384C84.9304 20.2147 84.9092 20.1879 84.8857 20.1582C84.7067 19.9322 84.495 19.7565 84.2504 19.6309C84.0058 19.5054 83.7432 19.4182 83.4627 19.3695C83.1929 19.322 82.914 19.3058 82.6261 19.321C82.3429 19.3421 82.0691 19.3752 81.8047 19.4201C81.5463 19.4603 81.3056 19.5106 81.0826 19.5712C80.8643 19.6376 80.6846 19.6977 80.5434 19.7515C80.8152 19.8749 81.1066 19.9924 81.4176 20.104C81.7333 20.2217 82.0313 20.3291 82.3116 20.4264C82.5918 20.5237 82.839 20.6037 83.0531 20.6663C83.2719 20.7349 83.4227 20.7848 83.5055 20.816C83.8839 20.9517 84.1844 21.0136 84.4072 21.0016C84.6359 20.9849 84.8037 20.9342 84.9108 20.8495C84.9999 20.7788 85.0477 20.6926 85.0542 20.5908C85.0653 20.4949 85.0485 20.4065 85.0039 20.3258ZM86.4889 19.672C86.8798 20.1655 87.0529 20.6283 87.0081 21.0604C86.9634 21.4926 86.73 21.8758 86.3078 22.2102C86.0581 22.408 85.7447 22.5498 85.3676 22.6356C84.9905 22.7214 84.5321 22.7168 83.9924 22.6218C83.4587 22.5221 82.8289 22.3195 82.1031 22.0139C81.3879 21.7095 80.5615 21.2708 79.6237 20.6977C79.4749 20.864 79.4111 21.0644 79.4325 21.2991C79.4598 21.529 79.5747 21.7718 79.7772 22.0275C79.9938 22.301 80.2632 22.5617 80.5854 22.8096C80.9182 23.0588 81.2672 23.2856 81.6322 23.4899C82.0019 23.7002 82.3735 23.8945 82.747 24.0728C83.1264 24.2464 83.4733 24.3973 83.7878 24.5256C84.1069 24.6598 84.3753 24.7665 84.5929 24.8457C84.8152 24.9309 84.9594 24.9908 85.0255 25.0255C85.1036 25.0508 85.1621 25.0818 85.201 25.1188C85.2446 25.1616 85.2805 25.2009 85.3088 25.2365C85.3653 25.3079 85.3946 25.3815 85.3966 25.4573C85.4045 25.5284 85.3965 25.5977 85.3725 25.6651C85.3591 25.7337 85.3304 25.7952 85.2863 25.8494C85.2481 25.899 85.2112 25.9379 85.1756 25.9662C85.1221 26.0086 85.0519 26.0544 84.9652 26.1037C84.8845 26.1484 84.7659 26.1697 84.6096 26.1678C84.5563 26.1616 84.396 26.1241 84.1286 26.0553C83.8659 25.9924 83.5395 25.8978 83.1492 25.7716C82.7589 25.6453 82.3214 25.4838 81.8367 25.2872C81.3626 25.0919 80.8846 24.8609 80.4026 24.5944C79.9253 24.3339 79.4636 24.032 79.0176 23.6887C78.5655 23.35 78.1747 22.9727 77.845 22.5565C77.5625 22.1997 77.3789 21.8275 77.2943 21.4397C77.2144 21.0579 77.2127 20.6771 77.2892 20.2972C77.3704 19.9233 77.5225 19.5657 77.7457 19.2245C77.9688 18.8832 78.2469 18.5808 78.5799 18.317C78.8355 18.1145 79.155 17.9437 79.5383 17.8046C79.9275 17.6608 80.352 17.5616 80.8119 17.507C81.2718 17.4523 81.7557 17.4464 82.2636 17.4891C82.7822 17.5331 83.2911 17.638 83.7902 17.8039C84.2892 17.9698 84.7696 18.2037 85.2313 18.5056C85.6977 18.8135 86.1169 19.2023 86.4889 19.672Z" fill="#3D3D3D"/>
<path d="M83.2387 29.1793C83.5714 29.0315 83.9434 28.9535 84.3547 28.9452C84.769 28.9438 85.2106 28.9759 85.6796 29.0415C86.1486 29.1071 86.6302 29.192 87.1246 29.2961C87.6259 29.3972 88.128 29.4813 88.6308 29.5484C88.7725 29.5685 88.9011 29.5778 89.0166 29.5763C89.1391 29.5717 89.2523 29.5463 89.3563 29.5002C89.4672 29.4509 89.5435 29.3797 89.5851 29.2865C89.6336 29.1903 89.6317 29.0832 89.5794 28.9654C89.4532 28.6812 89.2692 28.4351 89.0275 28.2271C88.7927 28.016 88.5209 27.8338 88.2121 27.6804C87.9103 27.524 87.5819 27.3918 87.2269 27.2839C86.875 27.1829 86.5173 27.0969 86.1539 27.0259C85.8004 26.9588 85.4516 26.9021 85.1074 26.8558C84.7631 26.8094 84.4493 26.7662 84.1659 26.7261C83.8818 26.7029 83.5815 26.6993 83.2649 26.7154C82.9484 26.7314 82.6481 26.7279 82.3639 26.7047C82.0828 26.6884 81.8322 26.6379 81.612 26.5531C81.3848 26.4714 81.2204 26.3161 81.1189 26.0874C81.008 25.8378 81 25.6049 81.0948 25.3885C81.1896 25.1722 81.3479 25.0147 81.5698 24.9162C81.6945 24.8608 81.9086 24.8197 82.2121 24.7928C82.5155 24.766 82.8713 24.7449 83.2795 24.7297C83.6976 24.7182 84.1443 24.7149 84.6194 24.7197C85.0946 24.7245 85.5647 24.7273 86.0299 24.7283C86.4981 24.7361 86.9359 24.7409 87.3433 24.7426C87.7607 24.7481 88.1138 24.749 88.4026 24.7452C88.756 24.7376 89.0502 24.802 89.285 24.9384C89.5229 25.0818 89.6865 25.2539 89.7758 25.455C89.8528 25.6283 89.8546 25.81 89.7814 26.0002C89.7182 26.1942 89.5653 26.3451 89.3226 26.4529C89.1424 26.5329 88.9264 26.579 88.6746 26.5913C88.931 26.7015 89.2074 26.8194 89.5038 26.945C89.8003 27.0706 90.0871 27.2213 90.3643 27.397C90.6515 27.5765 90.9198 27.7976 91.1692 28.0603C91.4186 28.323 91.6295 28.6484 91.8019 29.0366C91.8881 29.2307 91.9454 29.4252 91.9738 29.62C92.0023 29.8149 91.9937 30.0012 91.9482 30.1791C91.9058 30.3639 91.8199 30.5349 91.6905 30.6919C91.5641 30.8559 91.3862 30.9972 91.1566 31.1157C91.3869 31.2043 91.6198 31.3084 91.8554 31.4278C92.0979 31.5442 92.3293 31.6821 92.5495 31.8416C92.7728 32.008 92.9795 32.2025 93.1696 32.4251C93.3598 32.6478 93.5241 32.915 93.6626 33.227C93.7642 33.4557 93.8369 33.6849 93.8807 33.9144C93.9245 34.1439 93.9229 34.3645 93.8759 34.5763C93.8388 34.7919 93.7502 34.9848 93.61 35.1549C93.4728 35.332 93.2726 35.479 93.0092 35.596C92.5932 35.7807 92.155 35.8591 91.6945 35.8312C91.2371 35.8102 90.7954 35.7408 90.3696 35.6228C90.2287 35.5858 90.0477 35.5334 89.8267 35.4655C89.6057 35.3977 89.3759 35.3379 89.1372 35.2863C88.8985 35.2346 88.6605 35.2033 88.4233 35.1925C88.1931 35.1785 87.9948 35.2085 87.8284 35.2824C87.6759 35.3501 87.5989 35.4382 87.5973 35.5468C87.5988 35.6623 87.6334 35.7963 87.7011 35.9488C87.8304 36.24 88.0571 36.5169 88.3812 36.7796C88.7053 37.0423 89.0595 37.2793 89.4437 37.4904C89.8379 37.7054 90.2283 37.893 90.6149 38.0533C91.0114 38.2175 91.3367 38.3428 91.5908 38.4291C91.6578 38.4491 91.714 38.4823 91.7595 38.5285C91.8049 38.5747 91.8399 38.6256 91.8645 38.681C91.9199 38.8058 91.9137 38.9413 91.8459 39.0876C91.7812 39.2409 91.6587 39.3575 91.4784 39.4375C91.3398 39.4991 91.1688 39.5252 90.9655 39.5159C90.7622 39.5066 90.5362 39.4368 90.2875 39.3066C89.7608 39.0923 89.2434 38.8615 88.7352 38.6141C88.2371 38.3706 87.7705 38.1048 87.3354 37.8166C86.9104 37.5323 86.5324 37.223 86.2014 36.8886C85.8734 36.5612 85.6217 36.2 85.4463 35.8048C85.2185 35.2919 85.1551 34.8221 85.2562 34.3955C85.3603 33.9758 85.6757 33.649 86.2026 33.4151C86.5492 33.2612 86.9042 33.1824 87.2677 33.1786C87.6312 33.1749 87.9947 33.2085 88.3581 33.2795C88.7285 33.3474 89.0931 33.4303 89.452 33.5282C89.8108 33.6261 90.1573 33.6963 90.4915 33.7388C90.6332 33.7589 90.7618 33.7682 90.8773 33.7667C90.9998 33.7621 91.113 33.7367 91.217 33.6905C91.3279 33.6413 91.4042 33.5701 91.4458 33.4769C91.4943 33.3807 91.4924 33.2736 91.4401 33.1558C91.3139 32.8716 91.1299 32.6255 90.8882 32.4174C90.6534 32.2064 90.3816 32.0241 90.0728 31.8708C89.771 31.7143 89.4426 31.5822 89.0876 31.4742C88.7357 31.3732 88.378 31.2872 88.0146 31.2163C87.6611 31.1492 87.3123 31.0924 86.9681 31.0461C86.6238 30.9998 86.31 30.9566 86.0267 30.9164C85.7425 30.8932 85.4422 30.8897 85.1256 30.9057C84.8091 30.9218 84.5088 30.9182 84.2246 30.895C83.9435 30.8788 83.6929 30.8282 83.4727 30.7435C83.2455 30.6617 83.0811 30.5065 82.9796 30.2778C82.9426 30.1946 82.9199 30.0968 82.9115 29.9843C82.8961 29.875 82.8977 29.7664 82.9162 29.6586C82.9378 29.5577 82.9744 29.4626 83.0261 29.3733C83.0808 29.2909 83.1517 29.2262 83.2387 29.1793Z" fill="#3D3D3D"/>
<path d="M93.1956 41.2906C93.1409 40.9384 92.998 40.6113 92.7669 40.3095C92.5444 40.014 92.2672 39.7616 91.9353 39.5522C91.6121 39.3491 91.2552 39.2012 90.8647 39.1083C90.4817 39.0143 90.099 38.997 89.7168 39.0564C89.5744 39.0785 89.4188 39.1142 89.2499 39.1635C89.0885 39.2116 88.9381 39.281 88.7987 39.3718C88.6679 39.4688 88.5643 39.5924 88.4878 39.7425C88.4114 39.8925 88.3906 40.0799 88.4255 40.3048C88.4791 40.6495 88.6209 40.9691 88.8508 41.2634C89.0894 41.5641 89.3747 41.8191 89.7066 42.0285C90.0459 42.2367 90.4146 42.3867 90.8127 42.4783C91.2107 42.57 91.6008 42.5862 91.983 42.5268C92.1329 42.5035 92.2848 42.4684 92.4387 42.4214C92.6013 42.3808 92.7442 42.3125 92.8675 42.2166C92.9919 42.1282 93.0848 42.0102 93.1463 41.8624C93.2153 41.7136 93.2317 41.523 93.1956 41.2906ZM95.2651 41.5678C95.3093 41.8526 95.319 42.1619 95.2941 42.4959C95.2704 42.8373 95.1902 43.1606 95.0534 43.4659C94.9166 43.7711 94.7123 44.037 94.4405 44.2634C94.1773 44.4962 93.8283 44.6464 93.3936 44.7139C93.1688 44.7488 92.9056 44.759 92.604 44.7445C92.3099 44.7288 91.9961 44.6854 91.6627 44.6144C91.5844 44.7033 91.5341 44.7994 91.5117 44.9027C91.4894 45.0059 91.487 45.1138 91.5044 45.2262C91.5289 45.3836 91.6006 45.549 91.7197 45.7224C91.8399 45.9033 91.9869 46.0838 92.1608 46.264C92.3346 46.4443 92.5272 46.6216 92.7385 46.796C92.9498 46.9704 93.1594 47.1336 93.3672 47.2855C93.575 47.4374 93.7687 47.5724 93.9482 47.6903C94.1364 47.8146 94.2943 47.9167 94.4218 47.9967C94.4824 48.041 94.5186 48.1006 94.5302 48.1756C94.5465 48.2805 94.5049 48.3829 94.4053 48.4828C94.3131 48.5816 94.1696 48.6461 93.9748 48.6763C93.7799 48.7066 93.5458 48.6816 93.2723 48.6013C93 48.5285 92.7008 48.3562 92.3746 48.0845C92.1517 47.9349 91.8949 47.7637 91.604 47.571C91.313 47.3783 91.0348 47.1682 90.7692 46.9408C90.5036 46.7134 90.27 46.4696 90.0683 46.2092C89.8667 45.9489 89.7437 45.6763 89.6995 45.3915C89.6692 45.1967 89.6695 45.0009 89.7003 44.8042C89.7323 44.615 89.8012 44.4163 89.907 44.2079C89.4454 44.0033 89.0154 43.7554 88.6171 43.4642C88.2188 43.1731 87.8628 42.8331 87.5491 42.4443C87.2365 42.063 86.9744 41.6356 86.7626 41.1619C86.5445 40.6968 86.3924 40.187 86.3062 39.6324C86.2736 39.4226 86.277 39.1726 86.3163 38.8825C86.3557 38.5923 86.4492 38.3053 86.597 38.0214C86.7535 37.7438 86.9719 37.4949 87.2524 37.2748C87.5329 37.0547 87.8943 36.9103 88.3364 36.8416C88.6362 36.795 89.0036 36.7878 89.4384 36.82C89.8732 36.8522 90.3269 36.9314 90.7994 37.0576C91.2805 37.1901 91.7617 37.3724 92.243 37.6047C92.7329 37.8432 93.1828 38.1456 93.5928 38.5117C94.0103 38.8767 94.3659 39.3127 94.6596 39.8197C94.9607 40.3256 95.1626 40.9082 95.2651 41.5678Z" fill="#3D3D3D"/>
<path d="M87.8527 49.4832C88.2147 49.5225 88.5756 49.6417 88.9354 49.841C89.2944 50.0478 89.6603 50.2973 90.0329 50.5895C90.4056 50.8816 90.7795 51.1969 91.1548 51.5351C91.5376 51.8742 91.9296 52.199 92.3308 52.5095C92.4433 52.598 92.5498 52.6706 92.6505 52.7273C92.7587 52.7848 92.8693 52.8197 92.9824 52.832C93.1031 52.8451 93.2048 52.8218 93.2875 52.7621C93.3779 52.7032 93.43 52.6097 93.4439 52.4815C93.4774 52.1724 93.4419 51.8671 93.3372 51.5659C93.2401 51.2654 93.0965 50.9714 92.9065 50.6838C92.724 50.397 92.5063 50.1178 92.2535 49.8462C91.9999 49.5822 91.7337 49.3283 91.455 49.0844C91.183 48.8489 90.9098 48.6247 90.6354 48.4118C90.3609 48.199 90.1112 48.004 89.8863 47.8271C89.6522 47.6643 89.3942 47.5105 89.1124 47.3655C88.8306 47.2204 88.5727 47.0666 88.3386 46.9039C88.1036 46.7487 87.9122 46.5791 87.7643 46.3953C87.6089 46.2106 87.5447 45.9938 87.5717 45.745C87.6011 45.4735 87.7112 45.268 87.9018 45.1285C88.0924 44.9889 88.3083 44.9323 88.5496 44.9584C88.6853 44.9732 88.8912 45.0451 89.1671 45.1742C89.443 45.3033 89.7612 45.4637 90.1219 45.6554C90.4893 45.8555 90.8772 46.0769 91.2858 46.3195C91.6943 46.5622 92.0995 46.8007 92.5013 47.035C92.9023 47.2769 93.2785 47.5008 93.63 47.7068C93.9882 47.9211 94.2931 48.0992 94.5448 48.2409C94.8543 48.4118 95.0763 48.6152 95.211 48.851C95.3448 49.0944 95.3998 49.3255 95.3761 49.5441C95.3556 49.7326 95.266 49.8907 95.1072 50.0185C94.9551 50.1546 94.7471 50.2083 94.4832 50.1796C94.2872 50.1584 94.0772 50.0898 93.8532 49.974C94.0196 50.198 94.1995 50.4388 94.3928 50.6963C94.5861 50.9537 94.7586 51.228 94.9101 51.5191C95.0683 51.8185 95.1894 52.1445 95.2732 52.4969C95.357 52.8493 95.376 53.2366 95.3302 53.6589C95.3073 53.87 95.2593 54.067 95.186 54.2497C95.1128 54.4325 95.0118 54.5894 94.8832 54.7204C94.7537 54.859 94.5936 54.9637 94.4028 55.0345C94.2112 55.1129 93.9864 55.1457 93.7284 55.133C93.883 55.3252 94.0322 55.5322 94.176 55.7537C94.3274 55.9761 94.4582 56.2116 94.5686 56.4601C94.6781 56.7161 94.7592 56.9881 94.8119 57.2761C94.8646 57.5641 94.8725 57.8777 94.8357 58.217C94.8087 58.4659 94.7566 58.7005 94.6792 58.921C94.6019 59.1415 94.4898 59.3315 94.3428 59.491C94.2025 59.6589 94.029 59.7812 93.8223 59.858C93.6148 59.9423 93.3678 59.9689 93.0812 59.9378C92.6288 59.8887 92.2105 59.7365 91.8262 59.4812C91.4411 59.2335 91.094 58.9517 90.785 58.6359C90.6817 58.5331 90.5515 58.3969 90.3944 58.2273C90.2374 58.0577 90.0686 57.8906 89.8881 57.7261C89.7076 57.5615 89.5175 57.415 89.3178 57.2865C89.1257 57.1589 88.9391 57.0853 88.7581 57.0656C88.5923 57.0476 88.4814 57.0852 88.4255 57.1783C88.3688 57.279 88.3315 57.4122 88.3135 57.5781C88.2791 57.8948 88.3361 58.2481 88.4846 58.6381C88.633 59.028 88.8203 59.4107 89.0466 59.7862C89.2796 60.17 89.523 60.5283 89.7768 60.861C90.0374 61.2021 90.2559 61.4737 90.4323 61.676C90.4802 61.7269 90.5121 61.7838 90.5282 61.8466C90.5443 61.9094 90.549 61.9709 90.5425 62.0312C90.5278 62.167 90.4544 62.2811 90.3223 62.3735C90.1893 62.4735 90.0249 62.5129 89.8288 62.4917C89.678 62.4753 89.517 62.4121 89.3459 62.3019C89.1747 62.1918 89.0143 62.018 88.8646 61.7805C88.5167 61.3308 88.185 60.8714 87.8697 60.4023C87.5611 59.9416 87.2911 59.4775 87.0595 59.0099C86.8347 58.5506 86.6631 58.0933 86.5446 57.638C86.4254 57.1902 86.3891 56.7514 86.4357 56.3216C86.4962 55.7636 86.6773 55.3255 86.9788 55.0073C87.2795 54.6966 87.7164 54.5723 88.2895 54.6345C88.6665 54.6754 89.0131 54.7855 89.3294 54.9647C89.6456 55.144 89.9431 55.3555 90.2218 55.5994C90.508 55.8441 90.7818 56.0988 91.0429 56.3637C91.3041 56.6285 91.5686 56.8632 91.8363 57.0677C91.9487 57.1562 92.0553 57.2288 92.156 57.2855C92.2642 57.343 92.3748 57.3779 92.4879 57.3901C92.6086 57.4032 92.7103 57.3799 92.793 57.3203C92.8833 57.2614 92.9354 57.1679 92.9494 57.0397C92.9829 56.7305 92.9473 56.4253 92.8427 56.1241C92.7456 55.8236 92.602 55.5296 92.412 55.2419C92.2295 54.9551 92.0118 54.6759 91.759 54.4044C91.5054 54.1404 91.2392 53.8864 90.9605 53.6426C90.6885 53.4071 90.4153 53.1829 90.1409 52.97C89.8664 52.7571 89.6167 52.5622 89.3918 52.3852C89.1577 52.2225 88.8997 52.0686 88.6179 51.9236C88.3361 51.7786 88.0782 51.6247 87.8441 51.462C87.6091 51.3068 87.4177 51.1373 87.2698 50.9534C87.1144 50.7687 87.0502 50.552 87.0772 50.3031C87.087 50.2126 87.1165 50.1167 87.1656 50.0152C87.2072 49.9129 87.2631 49.8198 87.3333 49.7358C87.4026 49.6594 87.482 49.5956 87.5715 49.5442C87.6601 49.5005 87.7539 49.4801 87.8527 49.4832Z" fill="#3D3D3D"/>
<path d="M90.3445 65.0797C90.474 64.7475 90.5146 64.393 90.4663 64.0159C90.4223 63.6487 90.3094 63.2912 90.1275 62.9434C89.95 62.6055 89.7156 62.2984 89.4245 62.022C89.1405 61.7484 88.8183 61.5413 88.4579 61.4007C88.3237 61.3483 88.1711 61.301 88.0003 61.2589C87.8366 61.2194 87.6717 61.2039 87.5056 61.2124C87.3437 61.2307 87.1921 61.2855 87.0506 61.3769C86.9092 61.4682 86.7971 61.6199 86.7144 61.8319C86.5876 62.1569 86.5497 62.5044 86.6008 62.8744C86.6562 63.2542 86.7748 63.618 86.9567 63.9658C87.1456 64.3163 87.3891 64.6311 87.6873 64.9102C87.9855 65.1893 88.3148 65.3992 88.6751 65.5398C88.8165 65.5949 88.9655 65.6408 89.1221 65.6775C89.2831 65.724 89.4409 65.7367 89.5957 65.7157C89.7477 65.7017 89.8874 65.6463 90.0147 65.5494C90.1491 65.4553 90.259 65.2987 90.3445 65.0797ZM91.9949 66.3585C91.8902 66.627 91.7432 66.8994 91.5541 67.1757C91.3621 67.459 91.1304 67.6983 90.8588 67.8936C90.5872 68.0889 90.277 68.2162 89.9283 68.2756C89.5838 68.3447 89.2066 68.2994 88.7968 68.1395C88.5848 68.0568 88.352 67.9334 88.0985 67.7694C87.8521 67.6082 87.6025 67.4131 87.3498 67.1843C87.2374 67.2219 87.1457 67.2797 87.0745 67.3578C87.0034 67.4359 86.9471 67.5279 86.9058 67.6339C86.8479 67.7823 86.8269 67.9613 86.8428 68.1711C86.8559 68.3879 86.8924 68.6178 86.9522 68.861C87.0121 69.1041 87.0896 69.3542 87.1847 69.6111C87.2799 69.868 87.3792 70.1144 87.4826 70.3501C87.5861 70.5859 87.6858 70.7998 87.7818 70.9919C87.8821 71.1939 87.9674 71.3615 88.0375 71.4947C88.0677 71.5634 88.069 71.6331 88.0415 71.7038C88.0029 71.8027 87.9154 71.8704 87.7791 71.9068C87.6499 71.9459 87.4934 71.9296 87.3097 71.858C87.1259 71.7863 86.936 71.6471 86.7399 71.4403C86.541 71.2406 86.3687 70.9414 86.223 70.5426C86.1054 70.3014 85.9692 70.0244 85.8144 69.7116C85.6596 69.3989 85.5245 69.0775 85.409 68.7475C85.2934 68.4175 85.2139 68.0893 85.1702 67.7629C85.1266 67.4365 85.1571 67.139 85.2619 66.8705C85.3335 66.6868 85.4321 66.5176 85.5575 66.363C85.6802 66.2155 85.8396 66.0782 86.0357 65.9512C85.7392 65.5424 85.4918 65.1122 85.2936 64.6603C85.0953 64.2085 84.9582 63.7357 84.8821 63.242C84.8033 62.7554 84.7912 62.254 84.8459 61.7381C84.8908 61.2264 85.0153 60.7091 85.2192 60.1862C85.2964 59.9884 85.4249 59.7739 85.6046 59.5428C85.7843 59.3116 86.0093 59.1104 86.2797 58.9391C86.5544 58.7775 86.8682 58.672 87.2213 58.6225C87.5744 58.573 87.9594 58.6296 88.3764 58.7922C88.659 58.9024 88.9802 59.0807 89.3401 59.3269C89.7 59.5731 90.0525 59.8694 90.3978 60.2157C90.7473 60.5719 91.0719 60.9712 91.3715 61.4137C91.6754 61.866 91.9127 62.3534 92.0833 62.8759C92.2611 63.4012 92.3497 63.9568 92.3491 64.5427C92.3555 65.1314 92.2375 65.7366 91.9949 66.3585Z" fill="#3D3D3D"/>
<path d="M86.0876 73.9963C86.1145 73.9685 86.1361 73.9418 86.1525 73.9163C86.1689 73.8908 86.1873 73.862 86.2078 73.8301C86.3635 73.5876 86.4611 73.3303 86.5006 73.0582C86.54 72.7861 86.5374 72.5095 86.4925 72.2283C86.45 71.9577 86.3748 71.6886 86.2671 71.4212C86.1553 71.1601 86.0352 70.9118 85.907 70.6763C85.7852 70.4449 85.6595 70.2335 85.53 70.0422C85.3963 69.8573 85.2812 69.7067 85.1845 69.5906C85.1559 69.8877 85.1393 70.2015 85.1345 70.5319C85.1256 70.8687 85.1206 71.1854 85.1194 71.4821C85.1182 71.7787 85.1227 72.0385 85.1329 72.2613C85.139 72.4906 85.1407 72.6494 85.138 72.7378C85.1323 73.1397 85.1713 73.4441 85.2548 73.651C85.3447 73.8619 85.4471 74.0042 85.562 74.078C85.6578 74.1395 85.7548 74.1567 85.8532 74.1298C85.9476 74.1092 86.0257 74.0647 86.0876 73.9963ZM87.1876 75.1891C86.8475 75.7189 86.4658 76.0327 86.0425 76.1305C85.6192 76.2283 85.181 76.1317 84.7278 75.8408C84.4598 75.6687 84.224 75.4182 84.0205 75.0893C83.8171 74.7604 83.6728 74.3253 83.5876 73.784C83.5089 73.2468 83.4964 72.5853 83.5501 71.7996C83.6061 71.0244 83.7532 70.1003 83.9912 69.0274C83.7857 68.9405 83.5754 68.9452 83.3603 69.0415C83.1517 69.1419 82.9593 69.3293 82.7831 69.6038C82.5946 69.8974 82.4353 70.2368 82.3052 70.6219C82.1774 71.0176 82.0761 71.4212 82.0012 71.8327C81.9221 72.2507 81.8588 72.6652 81.8113 73.0763C81.7701 73.4915 81.7398 73.8686 81.7204 74.2077C81.6969 74.5531 81.683 74.8416 81.6786 75.0731C81.6701 75.311 81.6602 75.4669 81.6488 75.5407C81.6502 75.6227 81.6398 75.6881 81.6175 75.7369C81.5911 75.7921 81.5656 75.8388 81.541 75.8771C81.4919 75.9537 81.4317 76.0052 81.3607 76.0317C81.296 76.0623 81.2279 76.0771 81.1563 76.0763C81.0871 76.0859 81.0196 76.0786 80.954 76.0545C80.8947 76.0345 80.8459 76.0122 80.8076 75.9876C80.7502 75.9507 80.6841 75.8993 80.6093 75.8333C80.5409 75.7713 80.4823 75.6661 80.4334 75.5176C80.422 75.4652 80.4055 75.3013 80.3839 75.0261C80.3582 74.7573 80.3418 74.4178 80.3347 74.0076C80.3276 73.5975 80.3384 73.1313 80.3672 72.609C80.3983 72.0972 80.4618 71.5701 80.5576 71.0278C80.6493 70.4918 80.7852 69.9571 80.9653 69.4238C81.1391 68.8864 81.3693 68.3943 81.6561 67.9475C81.902 67.5646 82.1946 67.2702 82.5339 67.0645C82.8692 66.8651 83.2289 66.74 83.6131 66.6892C83.9931 66.6447 84.3807 66.6727 84.7759 66.7732C85.1711 66.8736 85.5474 67.0386 85.9048 67.268C86.1793 67.4442 86.4444 67.691 86.7003 68.0085C86.9625 68.33 87.194 68.6995 87.3948 69.1168C87.5956 69.5341 87.7581 69.9899 87.8824 70.4843C88.009 70.9891 88.0747 71.5045 88.0796 72.0304C88.0845 72.5563 88.019 73.0866 87.8831 73.6212C87.7431 74.1622 87.5113 74.6849 87.1876 75.1891Z" fill="#3D3D3D"/>
<path d="M60.5255 65.7696L66.1824 60.1127L53.4546 47.3849L66.1825 34.6569L60.5257 29L47.7977 41.728L35.0697 29L29.4128 34.6569L42.1408 47.3849L29.413 60.1127L35.0698 65.7696L47.7977 53.0417L60.5255 65.7696Z" fill="#3D3D3D"/>
</svg>
